<svg width="193" height="184" viewBox="0 0 193 184" fill="none" xmlns="http://www.w3.org/2000/svg">
<rect width="193" height="184" fill="white"/>
<path d="M45 31C45 26.5817 48.5817 23 53 23H127C131.418 23 135 26.5817 135 31V105C135 109.418 131.418 113 127 113H53C48.5817 113 45 109.418 45 105V31Z" fill="#464DAF"/>
<path d="M60 46C60 41.5817 63.5817 38 68 38H112C116.418 38 120 41.5817 120 46V90C120 94.4183 116.418 98 112 98H68C63.5817 98 60 94.4183 60 90V46Z" fill="#C5C8E8"/>
<rect x="120" y="111.132" width="18" height="59" transform="rotate(-46.8476 120 111.132)" fill="#464DAF"/>
<circle cx="105" cy="76" r="8" fill="white"/>
<path d="M17.5057 44.2557C16.5284 44.2519 15.6875 44.0114 14.983 43.5341C14.2822 43.0568 13.7424 42.3655 13.3636 41.4602C12.9886 40.5549 12.803 39.4659 12.8068 38.1932C12.8068 36.9242 12.9943 35.8428 13.3693 34.9489C13.7481 34.0549 14.2879 33.375 14.9886 32.9091C15.6932 32.4394 16.5322 32.2045 17.5057 32.2045C18.4792 32.2045 19.3163 32.4394 20.017 32.9091C20.7216 33.3788 21.2633 34.0606 21.642 34.9545C22.0208 35.8447 22.2083 36.9242 22.2045 38.1932C22.2045 39.4697 22.0152 40.5606 21.6364 41.4659C21.2614 42.3712 20.7235 43.0625 20.0227 43.5398C19.322 44.017 18.483 44.2557 17.5057 44.2557ZM17.5057 42.2159C18.1723 42.2159 18.7045 41.8807 19.1023 41.2102C19.5 40.5398 19.697 39.5341 19.6932 38.1932C19.6932 37.3106 19.6023 36.5758 19.4205 35.9886C19.2424 35.4015 18.9886 34.9602 18.6591 34.6648C18.3333 34.3693 17.9489 34.2216 17.5057 34.2216C16.8428 34.2216 16.3125 34.553 15.9148 35.2159C15.517 35.8788 15.3163 36.8712 15.3125 38.1932C15.3125 39.0871 15.4015 39.8333 15.5795 40.4318C15.7614 41.0265 16.017 41.4735 16.3466 41.7727C16.6761 42.0682 17.0625 42.2159 17.5057 42.2159ZM29.0213 32.3636V44H26.5611V34.6989H26.4929L23.8281 36.3693V34.1875L26.7088 32.3636H29.0213ZM36.3494 44.2557C35.3722 44.2519 34.5313 44.0114 33.8267 43.5341C33.1259 43.0568 32.5862 42.3655 32.2074 41.4602C31.8324 40.5549 31.6468 39.4659 31.6506 38.1932C31.6506 36.9242 31.8381 35.8428 32.2131 34.9489C32.5919 34.0549 33.1316 33.375 33.8324 32.9091C34.5369 32.4394 35.3759 32.2045 36.3494 32.2045C37.3229 32.2045 38.16 32.4394 38.8608 32.9091C39.5653 33.3788 40.107 34.0606 40.4858 34.9545C40.8646 35.8447 41.0521 36.9242 41.0483 38.1932C41.0483 39.4697 40.8589 40.5606 40.4801 41.4659C40.1051 42.3712 39.5672 43.0625 38.8665 43.5398C38.1657 44.017 37.3267 44.2557 36.3494 44.2557ZM36.3494 42.2159C37.0161 42.2159 37.5483 41.8807 37.946 41.2102C38.3438 40.5398 38.5407 39.5341 38.5369 38.1932C38.5369 37.3106 38.446 36.5758 38.2642 35.9886C38.0862 35.4015 37.8324 34.9602 37.5028 34.6648C37.1771 34.3693 36.7926 34.2216 36.3494 34.2216C35.6866 34.2216 35.1563 34.553 34.7585 35.2159C34.3608 35.8788 34.16 36.8712 34.1562 38.1932C34.1562 39.0871 34.2453 39.8333 34.4233 40.4318C34.6051 41.0265 34.8608 41.4735 35.1903 41.7727C35.5199 42.0682 35.9062 42.2159 36.3494 42.2159ZM47.8651 32.3636V44H45.4048V34.6989H45.3366L42.6719 36.3693V34.1875L45.5526 32.3636H47.8651ZM55.1932 44.2557C54.2159 44.2519 53.375 44.0114 52.6705 43.5341C51.9697 43.0568 51.4299 42.3655 51.0511 41.4602C50.6761 40.5549 50.4905 39.4659 50.4943 38.1932C50.4943 36.9242 50.6818 35.8428 51.0568 34.9489C51.4356 34.0549 51.9754 33.375 52.6761 32.9091C53.3807 32.4394 54.2197 32.2045 55.1932 32.2045C56.1667 32.2045 57.0038 32.4394 57.7045 32.9091C58.4091 33.3788 58.9508 34.0606 59.3295 34.9545C59.7083 35.8447 59.8958 36.9242 59.892 38.1932C59.892 39.4697 59.7027 40.5606 59.3239 41.4659C58.9489 42.3712 58.411 43.0625 57.7102 43.5398C57.0095 44.017 56.1705 44.2557 55.1932 44.2557ZM55.1932 42.2159C55.8598 42.2159 56.392 41.8807 56.7898 41.2102C57.1875 40.5398 57.3845 39.5341 57.3807 38.1932C57.3807 37.3106 57.2898 36.5758 57.108 35.9886C56.9299 35.4015 56.6761 34.9602 56.3466 34.6648C56.0208 34.3693 55.6364 34.2216 55.1932 34.2216C54.5303 34.2216 54 34.553 53.6023 35.2159C53.2045 35.8788 53.0038 36.8712 53 38.1932C53 39.0871 53.089 39.8333 53.267 40.4318C53.4489 41.0265 53.7045 41.4735 54.0341 41.7727C54.3636 42.0682 54.75 42.2159 55.1932 42.2159ZM66.7088 32.3636V44H64.2486V34.6989H64.1804L61.5156 36.3693V34.1875L64.3963 32.3636H66.7088ZM74.0369 44.2557C73.0597 44.2519 72.2188 44.0114 71.5142 43.5341C70.8134 43.0568 70.2737 42.3655 69.8949 41.4602C69.5199 40.5549 69.3343 39.4659 69.3381 38.1932C69.3381 36.9242 69.5256 35.8428 69.9006 34.9489C70.2794 34.0549 70.8191 33.375 71.5199 32.9091C72.2244 32.4394 73.0634 32.2045 74.0369 32.2045C75.0104 32.2045 75.8475 32.4394 76.5483 32.9091C77.2528 33.3788 77.7945 34.0606 78.1733 34.9545C78.5521 35.8447 78.7396 36.9242 78.7358 38.1932C78.7358 39.4697 78.5464 40.5606 78.1676 41.4659C77.7926 42.3712 77.2547 43.0625 76.554 43.5398C75.8532 44.017 75.0142 44.2557 74.0369 44.2557ZM74.0369 42.2159C74.7036 42.2159 75.2358 41.8807 75.6335 41.2102C76.0313 40.5398 76.2282 39.5341 76.2244 38.1932C76.2244 37.3106 76.1335 36.5758 75.9517 35.9886C75.7737 35.4015 75.5199 34.9602 75.1903 34.6648C74.8646 34.3693 74.4801 34.2216 74.0369 34.2216C73.3741 34.2216 72.8438 34.553 72.446 35.2159C72.0483 35.8788 71.8475 36.8712 71.8438 38.1932C71.8438 39.0871 71.9328 39.8333 72.1108 40.4318C72.2926 41.0265 72.5483 41.4735 72.8778 41.7727C73.2074 42.0682 73.5938 42.2159 74.0369 42.2159ZM85.5526 32.3636V44H83.0923V34.6989H83.0241L80.3594 36.3693V34.1875L83.2401 32.3636H85.5526ZM92.8807 44.2557C91.9034 44.2519 91.0625 44.0114 90.358 43.5341C89.6572 43.0568 89.1174 42.3655 88.7386 41.4602C88.3636 40.5549 88.178 39.4659 88.1818 38.1932C88.1818 36.9242 88.3693 35.8428 88.7443 34.9489C89.1231 34.0549 89.6629 33.375 90.3636 32.9091C91.0682 32.4394 91.9072 32.2045 92.8807 32.2045C93.8542 32.2045 94.6913 32.4394 95.392 32.9091C96.0966 33.3788 96.6383 34.0606 97.017 34.9545C97.3958 35.8447 97.5833 36.9242 97.5795 38.1932C97.5795 39.4697 97.3902 40.5606 97.0114 41.4659C96.6364 42.3712 96.0985 43.0625 95.3977 43.5398C94.697 44.017 93.858 44.2557 92.8807 44.2557ZM92.8807 42.2159C93.5473 42.2159 94.0795 41.8807 94.4773 41.2102C94.875 40.5398 95.072 39.5341 95.0682 38.1932C95.0682 37.3106 94.9773 36.5758 94.7955 35.9886C94.6174 35.4015 94.3636 34.9602 94.0341 34.6648C93.7083 34.3693 93.3239 34.2216 92.8807 34.2216C92.2178 34.2216 91.6875 34.553 91.2898 35.2159C90.892 35.8788 90.6913 36.8712 90.6875 38.1932C90.6875 39.0871 90.7765 39.8333 90.9545 40.4318C91.1364 41.0265 91.392 41.4735 91.7216 41.7727C92.0511 42.0682 92.4375 42.2159 92.8807 42.2159ZM104.396 32.3636V44H101.936V34.6989H101.868L99.2031 36.3693V34.1875L102.084 32.3636H104.396ZM111.724 44.2557C110.747 44.2519 109.906 44.0114 109.202 43.5341C108.501 43.0568 107.961 42.3655 107.582 41.4602C107.207 40.5549 107.022 39.4659 107.026 38.1932C107.026 36.9242 107.213 35.8428 107.588 34.9489C107.967 34.0549 108.507 33.375 109.207 32.9091C109.912 32.4394 110.751 32.2045 111.724 32.2045C112.698 32.2045 113.535 32.4394 114.236 32.9091C114.94 33.3788 115.482 34.0606 115.861 34.9545C116.24 35.8447 116.427 36.9242 116.423 38.1932C116.423 39.4697 116.234 40.5606 115.855 41.4659C115.48 42.3712 114.942 43.0625 114.241 43.5398C113.541 44.017 112.702 44.2557 111.724 44.2557ZM111.724 42.2159C112.391 42.2159 112.923 41.8807 113.321 41.2102C113.719 40.5398 113.916 39.5341 113.912 38.1932C113.912 37.3106 113.821 36.5758 113.639 35.9886C113.461 35.4015 113.207 34.9602 112.878 34.6648C112.552 34.3693 112.168 34.2216 111.724 34.2216C111.062 34.2216 110.531 34.553 110.134 35.2159C109.736 35.8788 109.535 36.8712 109.531 38.1932C109.531 39.0871 109.62 39.8333 109.798 40.4318C109.98 41.0265 110.236 41.4735 110.565 41.7727C110.895 42.0682 111.281 42.2159 111.724 42.2159ZM123.24 32.3636V44H120.78V34.6989H120.712L118.047 36.3693V34.1875L120.928 32.3636H123.24ZM130.568 44.2557C129.591 44.2519 128.75 44.0114 128.045 43.5341C127.345 43.0568 126.805 42.3655 126.426 41.4602C126.051 40.5549 125.866 39.4659 125.869 38.1932C125.869 36.9242 126.057 35.8428 126.432 34.9489C126.811 34.0549 127.35 33.375 128.051 32.9091C128.756 32.4394 129.595 32.2045 130.568 32.2045C131.542 32.2045 132.379 32.4394 133.08 32.9091C133.784 33.3788 134.326 34.0606 134.705 34.9545C135.083 35.8447 135.271 36.9242 135.267 38.1932C135.267 39.4697 135.078 40.5606 134.699 41.4659C134.324 42.3712 133.786 43.0625 133.085 43.5398C132.384 44.017 131.545 44.2557 130.568 44.2557ZM130.568 42.2159C131.235 42.2159 131.767 41.8807 132.165 41.2102C132.563 40.5398 132.759 39.5341 132.756 38.1932C132.756 37.3106 132.665 36.5758 132.483 35.9886C132.305 35.4015 132.051 34.9602 131.722 34.6648C131.396 34.3693 131.011 34.2216 130.568 34.2216C129.905 34.2216 129.375 34.553 128.977 35.2159C128.58 35.8788 128.379 36.8712 128.375 38.1932C128.375 39.0871 128.464 39.8333 128.642 40.4318C128.824 41.0265 129.08 41.4735 129.409 41.7727C129.739 42.0682 130.125 42.2159 130.568 42.2159ZM142.084 32.3636V44H139.624V34.6989H139.555L136.891 36.3693V34.1875L139.771 32.3636H142.084ZM149.412 44.2557C148.435 44.2519 147.594 44.0114 146.889 43.5341C146.188 43.0568 145.649 42.3655 145.27 41.4602C144.895 40.5549 144.709 39.4659 144.713 38.1932C144.713 36.9242 144.901 35.8428 145.276 34.9489C145.654 34.0549 146.194 33.375 146.895 32.9091C147.599 32.4394 148.438 32.2045 149.412 32.2045C150.385 32.2045 151.223 32.4394 151.923 32.9091C152.628 33.3788 153.17 34.0606 153.548 34.9545C153.927 35.8447 154.115 36.9242 154.111 38.1932C154.111 39.4697 153.921 40.5606 153.543 41.4659C153.168 42.3712 152.63 43.0625 151.929 43.5398C151.228 44.017 150.389 44.2557 149.412 44.2557ZM149.412 42.2159C150.079 42.2159 150.611 41.8807 151.009 41.2102C151.406 40.5398 151.603 39.5341 151.599 38.1932C151.599 37.3106 151.509 36.5758 151.327 35.9886C151.149 35.4015 150.895 34.9602 150.565 34.6648C150.24 34.3693 149.855 34.2216 149.412 34.2216C148.749 34.2216 148.219 34.553 147.821 35.2159C147.423 35.8788 147.223 36.8712 147.219 38.1932C147.219 39.0871 147.308 39.8333 147.486 40.4318C147.668 41.0265 147.923 41.4735 148.253 41.7727C148.582 42.0682 148.969 42.2159 149.412 42.2159ZM160.928 32.3636V44H158.467V34.6989H158.399L155.734 36.3693V34.1875L158.615 32.3636H160.928ZM168.256 44.2557C167.278 44.2519 166.438 44.0114 165.733 43.5341C165.032 43.0568 164.492 42.3655 164.114 41.4602C163.739 40.5549 163.553 39.4659 163.557 38.1932C163.557 36.9242 163.744 35.8428 164.119 34.9489C164.498 34.0549 165.038 33.375 165.739 32.9091C166.443 32.4394 167.282 32.2045 168.256 32.2045C169.229 32.2045 170.066 32.4394 170.767 32.9091C171.472 33.3788 172.013 34.0606 172.392 34.9545C172.771 35.8447 172.958 36.9242 172.955 38.1932C172.955 39.4697 172.765 40.5606 172.386 41.4659C172.011 42.3712 171.473 43.0625 170.773 43.5398C170.072 44.017 169.233 44.2557 168.256 44.2557ZM168.256 42.2159C168.922 42.2159 169.455 41.8807 169.852 41.2102C170.25 40.5398 170.447 39.5341 170.443 38.1932C170.443 37.3106 170.352 36.5758 170.17 35.9886C169.992 35.4015 169.739 34.9602 169.409 34.6648C169.083 34.3693 168.699 34.2216 168.256 34.2216C167.593 34.2216 167.063 34.553 166.665 35.2159C166.267 35.8788 166.066 36.8712 166.062 38.1932C166.062 39.0871 166.152 39.8333 166.33 40.4318C166.511 41.0265 166.767 41.4735 167.097 41.7727C167.426 42.0682 167.812 42.2159 168.256 42.2159ZM17.5057 63.2557C16.5284 63.2519 15.6875 63.0114 14.983 62.5341C14.2822 62.0568 13.7424 61.3655 13.3636 60.4602C12.9886 59.5549 12.803 58.4659 12.8068 57.1932C12.8068 55.9242 12.9943 54.8428 13.3693 53.9489C13.7481 53.0549 14.2879 52.375 14.9886 51.9091C15.6932 51.4394 16.5322 51.2045 17.5057 51.2045C18.4792 51.2045 19.3163 51.4394 20.017 51.9091C20.7216 52.3788 21.2633 53.0606 21.642 53.9545C22.0208 54.8447 22.2083 55.9242 22.2045 57.1932C22.2045 58.4697 22.0152 59.5606 21.6364 60.4659C21.2614 61.3712 20.7235 62.0625 20.0227 62.5398C19.322 63.017 18.483 63.2557 17.5057 63.2557ZM17.5057 61.2159C18.1723 61.2159 18.7045 60.8807 19.1023 60.2102C19.5 59.5398 19.697 58.5341 19.6932 57.1932C19.6932 56.3106 19.6023 55.5758 19.4205 54.9886C19.2424 54.4015 18.9886 53.9602 18.6591 53.6648C18.3333 53.3693 17.9489 53.2216 17.5057 53.2216C16.8428 53.2216 16.3125 53.553 15.9148 54.2159C15.517 54.8788 15.3163 55.8712 15.3125 57.1932C15.3125 58.0871 15.4015 58.8333 15.5795 59.4318C15.7614 60.0265 16.017 60.4735 16.3466 60.7727C16.6761 61.0682 17.0625 61.2159 17.5057 61.2159ZM29.0213 51.3636V63H26.5611V53.6989H26.4929L23.8281 55.3693V53.1875L26.7088 51.3636H29.0213ZM36.3494 63.2557C35.3722 63.2519 34.5313 63.0114 33.8267 62.5341C33.1259 62.0568 32.5862 61.3655 32.2074 60.4602C31.8324 59.5549 31.6468 58.4659 31.6506 57.1932C31.6506 55.9242 31.8381 54.8428 32.2131 53.9489C32.5919 53.0549 33.1316 52.375 33.8324 51.9091C34.5369 51.4394 35.3759 51.2045 36.3494 51.2045C37.3229 51.2045 38.16 51.4394 38.8608 51.9091C39.5653 52.3788 40.107 53.0606 40.4858 53.9545C40.8646 54.8447 41.0521 55.9242 41.0483 57.1932C41.0483 58.4697 40.8589 59.5606 40.4801 60.4659C40.1051 61.3712 39.5672 62.0625 38.8665 62.5398C38.1657 63.017 37.3267 63.2557 36.3494 63.2557ZM36.3494 61.2159C37.0161 61.2159 37.5483 60.8807 37.946 60.2102C38.3438 59.5398 38.5407 58.5341 38.5369 57.1932C38.5369 56.3106 38.446 55.5758 38.2642 54.9886C38.0862 54.4015 37.8324 53.9602 37.5028 53.6648C37.1771 53.3693 36.7926 53.2216 36.3494 53.2216C35.6866 53.2216 35.1563 53.553 34.7585 54.2159C34.3608 54.8788 34.16 55.8712 34.1562 57.1932C34.1562 58.0871 34.2453 58.8333 34.4233 59.4318C34.6051 60.0265 34.8608 60.4735 35.1903 60.7727C35.5199 61.0682 35.9062 61.2159 36.3494 61.2159ZM47.8651 51.3636V63H45.4048V53.6989H45.3366L42.6719 55.3693V53.1875L45.5526 51.3636H47.8651ZM55.1932 63.2557C54.2159 63.2519 53.375 63.0114 52.6705 62.5341C51.9697 62.0568 51.4299 61.3655 51.0511 60.4602C50.6761 59.5549 50.4905 58.4659 50.4943 57.1932C50.4943 55.9242 50.6818 54.8428 51.0568 53.9489C51.4356 53.0549 51.9754 52.375 52.6761 51.9091C53.3807 51.4394 54.2197 51.2045 55.1932 51.2045C56.1667 51.2045 57.0038 51.4394 57.7045 51.9091C58.4091 52.3788 58.9508 53.0606 59.3295 53.9545C59.7083 54.8447 59.8958 55.9242 59.892 57.1932C59.892 58.4697 59.7027 59.5606 59.3239 60.4659C58.9489 61.3712 58.411 62.0625 57.7102 62.5398C57.0095 63.017 56.1705 63.2557 55.1932 63.2557ZM55.1932 61.2159C55.8598 61.2159 56.392 60.8807 56.7898 60.2102C57.1875 59.5398 57.3845 58.5341 57.3807 57.1932C57.3807 56.3106 57.2898 55.5758 57.108 54.9886C56.9299 54.4015 56.6761 53.9602 56.3466 53.6648C56.0208 53.3693 55.6364 53.2216 55.1932 53.2216C54.5303 53.2216 54 53.553 53.6023 54.2159C53.2045 54.8788 53.0038 55.8712 53 57.1932C53 58.0871 53.089 58.8333 53.267 59.4318C53.4489 60.0265 53.7045 60.4735 54.0341 60.7727C54.3636 61.0682 54.75 61.2159 55.1932 61.2159ZM66.7088 51.3636V63H64.2486V53.6989H64.1804L61.5156 55.3693V53.1875L64.3963 51.3636H66.7088ZM74.0369 63.2557C73.0597 63.2519 72.2188 63.0114 71.5142 62.5341C70.8134 62.0568 70.2737 61.3655 69.8949 60.4602C69.5199 59.5549 69.3343 58.4659 69.3381 57.1932C69.3381 55.9242 69.5256 54.8428 69.9006 53.9489C70.2794 53.0549 70.8191 52.375 71.5199 51.9091C72.2244 51.4394 73.0634 51.2045 74.0369 51.2045C75.0104 51.2045 75.8475 51.4394 76.5483 51.9091C77.2528 52.3788 77.7945 53.0606 78.1733 53.9545C78.5521 54.8447 78.7396 55.9242 78.7358 57.1932C78.7358 58.4697 78.5464 59.5606 78.1676 60.4659C77.7926 61.3712 77.2547 62.0625 76.554 62.5398C75.8532 63.017 75.0142 63.2557 74.0369 63.2557ZM74.0369 61.2159C74.7036 61.2159 75.2358 60.8807 75.6335 60.2102C76.0313 59.5398 76.2282 58.5341 76.2244 57.1932C76.2244 56.3106 76.1335 55.5758 75.9517 54.9886C75.7737 54.4015 75.5199 53.9602 75.1903 53.6648C74.8646 53.3693 74.4801 53.2216 74.0369 53.2216C73.3741 53.2216 72.8438 53.553 72.446 54.2159C72.0483 54.8788 71.8475 55.8712 71.8438 57.1932C71.8438 58.0871 71.9328 58.8333 72.1108 59.4318C72.2926 60.0265 72.5483 60.4735 72.8778 60.7727C73.2074 61.0682 73.5938 61.2159 74.0369 61.2159ZM85.5526 51.3636V63H83.0923V53.6989H83.0241L80.3594 55.3693V53.1875L83.2401 51.3636H85.5526ZM92.8807 63.2557C91.9034 63.2519 91.0625 63.0114 90.358 62.5341C89.6572 62.0568 89.1174 61.3655 88.7386 60.4602C88.3636 59.5549 88.178 58.4659 88.1818 57.1932C88.1818 55.9242 88.3693 54.8428 88.7443 53.9489C89.1231 53.0549 89.6629 52.375 90.3636 51.9091C91.0682 51.4394 91.9072 51.2045 92.8807 51.2045C93.8542 51.2045 94.6913 51.4394 95.392 51.9091C96.0966 52.3788 96.6383 53.0606 97.017 53.9545C97.3958 54.8447 97.5833 55.9242 97.5795 57.1932C97.5795 58.4697 97.3902 59.5606 97.0114 60.4659C96.6364 61.3712 96.0985 62.0625 95.3977 62.5398C94.697 63.017 93.858 63.2557 92.8807 63.2557ZM92.8807 61.2159C93.5473 61.2159 94.0795 60.8807 94.4773 60.2102C94.875 59.5398 95.072 58.5341 95.0682 57.1932C95.0682 56.3106 94.9773 55.5758 94.7955 54.9886C94.6174 54.4015 94.3636 53.9602 94.0341 53.6648C93.7083 53.3693 93.3239 53.2216 92.8807 53.2216C92.2178 53.2216 91.6875 53.553 91.2898 54.2159C90.892 54.8788 90.6913 55.8712 90.6875 57.1932C90.6875 58.0871 90.7765 58.8333 90.9545 59.4318C91.1364 60.0265 91.392 60.4735 91.7216 60.7727C92.0511 61.0682 92.4375 61.2159 92.8807 61.2159ZM104.396 51.3636V63H101.936V53.6989H101.868L99.2031 55.3693V53.1875L102.084 51.3636H104.396ZM111.724 63.2557C110.747 63.2519 109.906 63.0114 109.202 62.5341C108.501 62.0568 107.961 61.3655 107.582 60.4602C107.207 59.5549 107.022 58.4659 107.026 57.1932C107.026 55.9242 107.213 54.8428 107.588 53.9489C107.967 53.0549 108.507 52.375 109.207 51.9091C109.912 51.4394 110.751 51.2045 111.724 51.2045C112.698 51.2045 113.535 51.4394 114.236 51.9091C114.94 52.3788 115.482 53.0606 115.861 53.9545C116.24 54.8447 116.427 55.9242 116.423 57.1932C116.423 58.4697 116.234 59.5606 115.855 60.4659C115.48 61.3712 114.942 62.0625 114.241 62.5398C113.541 63.017 112.702 63.2557 111.724 63.2557ZM111.724 61.2159C112.391 61.2159 112.923 60.8807 113.321 60.2102C113.719 59.5398 113.916 58.5341 113.912 57.1932C113.912 56.3106 113.821 55.5758 113.639 54.9886C113.461 54.4015 113.207 53.9602 112.878 53.6648C112.552 53.3693 112.168 53.2216 111.724 53.2216C111.062 53.2216 110.531 53.553 110.134 54.2159C109.736 54.8788 109.535 55.8712 109.531 57.1932C109.531 58.0871 109.62 58.8333 109.798 59.4318C109.98 60.0265 110.236 60.4735 110.565 60.7727C110.895 61.0682 111.281 61.2159 111.724 61.2159ZM123.24 51.3636V63H120.78V53.6989H120.712L118.047 55.3693V53.1875L120.928 51.3636H123.24ZM130.568 63.2557C129.591 63.2519 128.75 63.0114 128.045 62.5341C127.345 62.0568 126.805 61.3655 126.426 60.4602C126.051 59.5549 125.866 58.4659 125.869 57.1932C125.869 55.9242 126.057 54.8428 126.432 53.9489C126.811 53.0549 127.35 52.375 128.051 51.9091C128.756 51.4394 129.595 51.2045 130.568 51.2045C131.542 51.2045 132.379 51.4394 133.08 51.9091C133.784 52.3788 134.326 53.0606 134.705 53.9545C135.083 54.8447 135.271 55.9242 135.267 57.1932C135.267 58.4697 135.078 59.5606 134.699 60.4659C134.324 61.3712 133.786 62.0625 133.085 62.5398C132.384 63.017 131.545 63.2557 130.568 63.2557ZM130.568 61.2159C131.235 61.2159 131.767 60.8807 132.165 60.2102C132.563 59.5398 132.759 58.5341 132.756 57.1932C132.756 56.3106 132.665 55.5758 132.483 54.9886C132.305 54.4015 132.051 53.9602 131.722 53.6648C131.396 53.3693 131.011 53.2216 130.568 53.2216C129.905 53.2216 129.375 53.553 128.977 54.2159C128.58 54.8788 128.379 55.8712 128.375 57.1932C128.375 58.0871 128.464 58.8333 128.642 59.4318C128.824 60.0265 129.08 60.4735 129.409 60.7727C129.739 61.0682 130.125 61.2159 130.568 61.2159ZM142.084 51.3636V63H139.624V53.6989H139.555L136.891 55.3693V53.1875L139.771 51.3636H142.084ZM149.412 63.2557C148.435 63.2519 147.594 63.0114 146.889 62.5341C146.188 62.0568 145.649 61.3655 145.27 60.4602C144.895 59.5549 144.709 58.4659 144.713 57.1932C144.713 55.9242 144.901 54.8428 145.276 53.9489C145.654 53.0549 146.194 52.375 146.895 51.9091C147.599 51.4394 148.438 51.2045 149.412 51.2045C150.385 51.2045 151.223 51.4394 151.923 51.9091C152.628 52.3788 153.17 53.0606 153.548 53.9545C153.927 54.8447 154.115 55.9242 154.111 57.1932C154.111 58.4697 153.921 59.5606 153.543 60.4659C153.168 61.3712 152.63 62.0625 151.929 62.5398C151.228 63.017 150.389 63.2557 149.412 63.2557ZM149.412 61.2159C150.079 61.2159 150.611 60.8807 151.009 60.2102C151.406 59.5398 151.603 58.5341 151.599 57.1932C151.599 56.3106 151.509 55.5758 151.327 54.9886C151.149 54.4015 150.895 53.9602 150.565 53.6648C150.24 53.3693 149.855 53.2216 149.412 53.2216C148.749 53.2216 148.219 53.553 147.821 54.2159C147.423 54.8788 147.223 55.8712 147.219 57.1932C147.219 58.0871 147.308 58.8333 147.486 59.4318C147.668 60.0265 147.923 60.4735 148.253 60.7727C148.582 61.0682 148.969 61.2159 149.412 61.2159ZM160.928 51.3636V63H158.467V53.6989H158.399L155.734 55.3693V53.1875L158.615 51.3636H160.928ZM168.256 63.2557C167.278 63.2519 166.438 63.0114 165.733 62.5341C165.032 62.0568 164.492 61.3655 164.114 60.4602C163.739 59.5549 163.553 58.4659 163.557 57.1932C163.557 55.9242 163.744 54.8428 164.119 53.9489C164.498 53.0549 165.038 52.375 165.739 51.9091C166.443 51.4394 167.282 51.2045 168.256 51.2045C169.229 51.2045 170.066 51.4394 170.767 51.9091C171.472 52.3788 172.013 53.0606 172.392 53.9545C172.771 54.8447 172.958 55.9242 172.955 57.1932C172.955 58.4697 172.765 59.5606 172.386 60.4659C172.011 61.3712 171.473 62.0625 170.773 62.5398C170.072 63.017 169.233 63.2557 168.256 63.2557ZM168.256 61.2159C168.922 61.2159 169.455 60.8807 169.852 60.2102C170.25 59.5398 170.447 58.5341 170.443 57.1932C170.443 56.3106 170.352 55.5758 170.17 54.9886C169.992 54.4015 169.739 53.9602 169.409 53.6648C169.083 53.3693 168.699 53.2216 168.256 53.2216C167.593 53.2216 167.063 53.553 166.665 54.2159C166.267 54.8788 166.066 55.8712 166.062 57.1932C166.062 58.0871 166.152 58.8333 166.33 59.4318C166.511 60.0265 166.767 60.4735 167.097 60.7727C167.426 61.0682 167.812 61.2159 168.256 61.2159ZM17.5057 82.2557C16.5284 82.2519 15.6875 82.0114 14.983 81.5341C14.2822 81.0568 13.7424 80.3655 13.3636 79.4602C12.9886 78.5549 12.803 77.4659 12.8068 76.1932C12.8068 74.9242 12.9943 73.8428 13.3693 72.9489C13.7481 72.0549 14.2879 71.375 14.9886 70.9091C15.6932 70.4394 16.5322 70.2045 17.5057 70.2045C18.4792 70.2045 19.3163 70.4394 20.017 70.9091C20.7216 71.3788 21.2633 72.0606 21.642 72.9545C22.0208 73.8447 22.2083 74.9242 22.2045 76.1932C22.2045 77.4697 22.0152 78.5606 21.6364 79.4659C21.2614 80.3712 20.7235 81.0625 20.0227 81.5398C19.322 82.017 18.483 82.2557 17.5057 82.2557ZM17.5057 80.2159C18.1723 80.2159 18.7045 79.8807 19.1023 79.2102C19.5 78.5398 19.697 77.5341 19.6932 76.1932C19.6932 75.3106 19.6023 74.5758 19.4205 73.9886C19.2424 73.4015 18.9886 72.9602 18.6591 72.6648C18.3333 72.3693 17.9489 72.2216 17.5057 72.2216C16.8428 72.2216 16.3125 72.553 15.9148 73.2159C15.517 73.8788 15.3163 74.8712 15.3125 76.1932C15.3125 77.0871 15.4015 77.8333 15.5795 78.4318C15.7614 79.0265 16.017 79.4735 16.3466 79.7727C16.6761 80.0682 17.0625 80.2159 17.5057 80.2159ZM29.0213 70.3636V82H26.5611V72.6989H26.4929L23.8281 74.3693V72.1875L26.7088 70.3636H29.0213ZM36.3494 82.2557C35.3722 82.2519 34.5313 82.0114 33.8267 81.5341C33.1259 81.0568 32.5862 80.3655 32.2074 79.4602C31.8324 78.5549 31.6468 77.4659 31.6506 76.1932C31.6506 74.9242 31.8381 73.8428 32.2131 72.9489C32.5919 72.0549 33.1316 71.375 33.8324 70.9091C34.5369 70.4394 35.3759 70.2045 36.3494 70.2045C37.3229 70.2045 38.16 70.4394 38.8608 70.9091C39.5653 71.3788 40.107 72.0606 40.4858 72.9545C40.8646 73.8447 41.0521 74.9242 41.0483 76.1932C41.0483 77.4697 40.8589 78.5606 40.4801 79.4659C40.1051 80.3712 39.5672 81.0625 38.8665 81.5398C38.1657 82.017 37.3267 82.2557 36.3494 82.2557ZM36.3494 80.2159C37.0161 80.2159 37.5483 79.8807 37.946 79.2102C38.3438 78.5398 38.5407 77.5341 38.5369 76.1932C38.5369 75.3106 38.446 74.5758 38.2642 73.9886C38.0862 73.4015 37.8324 72.9602 37.5028 72.6648C37.1771 72.3693 36.7926 72.2216 36.3494 72.2216C35.6866 72.2216 35.1563 72.553 34.7585 73.2159C34.3608 73.8788 34.16 74.8712 34.1562 76.1932C34.1562 77.0871 34.2453 77.8333 34.4233 78.4318C34.6051 79.0265 34.8608 79.4735 35.1903 79.7727C35.5199 80.0682 35.9062 80.2159 36.3494 80.2159ZM47.8651 70.3636V82H45.4048V72.6989H45.3366L42.6719 74.3693V72.1875L45.5526 70.3636H47.8651ZM55.1932 82.2557C54.2159 82.2519 53.375 82.0114 52.6705 81.5341C51.9697 81.0568 51.4299 80.3655 51.0511 79.4602C50.6761 78.5549 50.4905 77.4659 50.4943 76.1932C50.4943 74.9242 50.6818 73.8428 51.0568 72.9489C51.4356 72.0549 51.9754 71.375 52.6761 70.9091C53.3807 70.4394 54.2197 70.2045 55.1932 70.2045C56.1667 70.2045 57.0038 70.4394 57.7045 70.9091C58.4091 71.3788 58.9508 72.0606 59.3295 72.9545C59.7083 73.8447 59.8958 74.9242 59.892 76.1932C59.892 77.4697 59.7027 78.5606 59.3239 79.4659C58.9489 80.3712 58.411 81.0625 57.7102 81.5398C57.0095 82.017 56.1705 82.2557 55.1932 82.2557ZM55.1932 80.2159C55.8598 80.2159 56.392 79.8807 56.7898 79.2102C57.1875 78.5398 57.3845 77.5341 57.3807 76.1932C57.3807 75.3106 57.2898 74.5758 57.108 73.9886C56.9299 73.4015 56.6761 72.9602 56.3466 72.6648C56.0208 72.3693 55.6364 72.2216 55.1932 72.2216C54.5303 72.2216 54 72.553 53.6023 73.2159C53.2045 73.8788 53.0038 74.8712 53 76.1932C53 77.0871 53.089 77.8333 53.267 78.4318C53.4489 79.0265 53.7045 79.4735 54.0341 79.7727C54.3636 80.0682 54.75 80.2159 55.1932 80.2159ZM66.7088 70.3636V82H64.2486V72.6989H64.1804L61.5156 74.3693V72.1875L64.3963 70.3636H66.7088ZM74.0369 82.2557C73.0597 82.2519 72.2188 82.0114 71.5142 81.5341C70.8134 81.0568 70.2737 80.3655 69.8949 79.4602C69.5199 78.5549 69.3343 77.4659 69.3381 76.1932C69.3381 74.9242 69.5256 73.8428 69.9006 72.9489C70.2794 72.0549 70.8191 71.375 71.5199 70.9091C72.2244 70.4394 73.0634 70.2045 74.0369 70.2045C75.0104 70.2045 75.8475 70.4394 76.5483 70.9091C77.2528 71.3788 77.7945 72.0606 78.1733 72.9545C78.5521 73.8447 78.7396 74.9242 78.7358 76.1932C78.7358 77.4697 78.5464 78.5606 78.1676 79.4659C77.7926 80.3712 77.2547 81.0625 76.554 81.5398C75.8532 82.017 75.0142 82.2557 74.0369 82.2557ZM74.0369 80.2159C74.7036 80.2159 75.2358 79.8807 75.6335 79.2102C76.0313 78.5398 76.2282 77.5341 76.2244 76.1932C76.2244 75.3106 76.1335 74.5758 75.9517 73.9886C75.7737 73.4015 75.5199 72.9602 75.1903 72.6648C74.8646 72.3693 74.4801 72.2216 74.0369 72.2216C73.3741 72.2216 72.8438 72.553 72.446 73.2159C72.0483 73.8788 71.8475 74.8712 71.8438 76.1932C71.8438 77.0871 71.9328 77.8333 72.1108 78.4318C72.2926 79.0265 72.5483 79.4735 72.8778 79.7727C73.2074 80.0682 73.5938 80.2159 74.0369 80.2159ZM85.5526 70.3636V82H83.0923V72.6989H83.0241L80.3594 74.3693V72.1875L83.2401 70.3636H85.5526ZM92.8807 82.2557C91.9034 82.2519 91.0625 82.0114 90.358 81.5341C89.6572 81.0568 89.1174 80.3655 88.7386 79.4602C88.3636 78.5549 88.178 77.4659 88.1818 76.1932C88.1818 74.9242 88.3693 73.8428 88.7443 72.9489C89.1231 72.0549 89.6629 71.375 90.3636 70.9091C91.0682 70.4394 91.9072 70.2045 92.8807 70.2045C93.8542 70.2045 94.6913 70.4394 95.392 70.9091C96.0966 71.3788 96.6383 72.0606 97.017 72.9545C97.3958 73.8447 97.5833 74.9242 97.5795 76.1932C97.5795 77.4697 97.3902 78.5606 97.0114 79.4659C96.6364 80.3712 96.0985 81.0625 95.3977 81.5398C94.697 82.017 93.858 82.2557 92.8807 82.2557ZM92.8807 80.2159C93.5473 80.2159 94.0795 79.8807 94.4773 79.2102C94.875 78.5398 95.072 77.5341 95.0682 76.1932C95.0682 75.3106 94.9773 74.5758 94.7955 73.9886C94.6174 73.4015 94.3636 72.9602 94.0341 72.6648C93.7083 72.3693 93.3239 72.2216 92.8807 72.2216C92.2178 72.2216 91.6875 72.553 91.2898 73.2159C90.892 73.8788 90.6913 74.8712 90.6875 76.1932C90.6875 77.0871 90.7765 77.8333 90.9545 78.4318C91.1364 79.0265 91.392 79.4735 91.7216 79.7727C92.0511 80.0682 92.4375 80.2159 92.8807 80.2159ZM104.396 70.3636V82H101.936V72.6989H101.868L99.2031 74.3693V72.1875L102.084 70.3636H104.396ZM111.724 82.2557C110.747 82.2519 109.906 82.0114 109.202 81.5341C108.501 81.0568 107.961 80.3655 107.582 79.4602C107.207 78.5549 107.022 77.4659 107.026 76.1932C107.026 74.9242 107.213 73.8428 107.588 72.9489C107.967 72.0549 108.507 71.375 109.207 70.9091C109.912 70.4394 110.751 70.2045 111.724 70.2045C112.698 70.2045 113.535 70.4394 114.236 70.9091C114.94 71.3788 115.482 72.0606 115.861 72.9545C116.24 73.8447 116.427 74.9242 116.423 76.1932C116.423 77.4697 116.234 78.5606 115.855 79.4659C115.48 80.3712 114.942 81.0625 114.241 81.5398C113.541 82.017 112.702 82.2557 111.724 82.2557ZM111.724 80.2159C112.391 80.2159 112.923 79.8807 113.321 79.2102C113.719 78.5398 113.916 77.5341 113.912 76.1932C113.912 75.3106 113.821 74.5758 113.639 73.9886C113.461 73.4015 113.207 72.9602 112.878 72.6648C112.552 72.3693 112.168 72.2216 111.724 72.2216C111.062 72.2216 110.531 72.553 110.134 73.2159C109.736 73.8788 109.535 74.8712 109.531 76.1932C109.531 77.0871 109.62 77.8333 109.798 78.4318C109.98 79.0265 110.236 79.4735 110.565 79.7727C110.895 80.0682 111.281 80.2159 111.724 80.2159ZM123.24 70.3636V82H120.78V72.6989H120.712L118.047 74.3693V72.1875L120.928 70.3636H123.24ZM130.568 82.2557C129.591 82.2519 128.75 82.0114 128.045 81.5341C127.345 81.0568 126.805 80.3655 126.426 79.4602C126.051 78.5549 125.866 77.4659 125.869 76.1932C125.869 74.9242 126.057 73.8428 126.432 72.9489C126.811 72.0549 127.35 71.375 128.051 70.9091C128.756 70.4394 129.595 70.2045 130.568 70.2045C131.542 70.2045 132.379 70.4394 133.08 70.9091C133.784 71.3788 134.326 72.0606 134.705 72.9545C135.083 73.8447 135.271 74.9242 135.267 76.1932C135.267 77.4697 135.078 78.5606 134.699 79.4659C134.324 80.3712 133.786 81.0625 133.085 81.5398C132.384 82.017 131.545 82.2557 130.568 82.2557ZM130.568 80.2159C131.235 80.2159 131.767 79.8807 132.165 79.2102C132.563 78.5398 132.759 77.5341 132.756 76.1932C132.756 75.3106 132.665 74.5758 132.483 73.9886C132.305 73.4015 132.051 72.9602 131.722 72.6648C131.396 72.3693 131.011 72.2216 130.568 72.2216C129.905 72.2216 129.375 72.553 128.977 73.2159C128.58 73.8788 128.379 74.8712 128.375 76.1932C128.375 77.0871 128.464 77.8333 128.642 78.4318C128.824 79.0265 129.08 79.4735 129.409 79.7727C129.739 80.0682 130.125 80.2159 130.568 80.2159ZM142.084 70.3636V82H139.624V72.6989H139.555L136.891 74.3693V72.1875L139.771 70.3636H142.084ZM149.412 82.2557C148.435 82.2519 147.594 82.0114 146.889 81.5341C146.188 81.0568 145.649 80.3655 145.27 79.4602C144.895 78.5549 144.709 77.4659 144.713 76.1932C144.713 74.9242 144.901 73.8428 145.276 72.9489C145.654 72.0549 146.194 71.375 146.895 70.9091C147.599 70.4394 148.438 70.2045 149.412 70.2045C150.385 70.2045 151.223 70.4394 151.923 70.9091C152.628 71.3788 153.17 72.0606 153.548 72.9545C153.927 73.8447 154.115 74.9242 154.111 76.1932C154.111 77.4697 153.921 78.5606 153.543 79.4659C153.168 80.3712 152.63 81.0625 151.929 81.5398C151.228 82.017 150.389 82.2557 149.412 82.2557ZM149.412 80.2159C150.079 80.2159 150.611 79.8807 151.009 79.2102C151.406 78.5398 151.603 77.5341 151.599 76.1932C151.599 75.3106 151.509 74.5758 151.327 73.9886C151.149 73.4015 150.895 72.9602 150.565 72.6648C150.24 72.3693 149.855 72.2216 149.412 72.2216C148.749 72.2216 148.219 72.553 147.821 73.2159C147.423 73.8788 147.223 74.8712 147.219 76.1932C147.219 77.0871 147.308 77.8333 147.486 78.4318C147.668 79.0265 147.923 79.4735 148.253 79.7727C148.582 80.0682 148.969 80.2159 149.412 80.2159ZM160.928 70.3636V82H158.467V72.6989H158.399L155.734 74.3693V72.1875L158.615 70.3636H160.928ZM168.256 82.2557C167.278 82.2519 166.438 82.0114 165.733 81.5341C165.032 81.0568 164.492 80.3655 164.114 79.4602C163.739 78.5549 163.553 77.4659 163.557 76.1932C163.557 74.9242 163.744 73.8428 164.119 72.9489C164.498 72.0549 165.038 71.375 165.739 70.9091C166.443 70.4394 167.282 70.2045 168.256 70.2045C169.229 70.2045 170.066 70.4394 170.767 70.9091C171.472 71.3788 172.013 72.0606 172.392 72.9545C172.771 73.8447 172.958 74.9242 172.955 76.1932C172.955 77.4697 172.765 78.5606 172.386 79.4659C172.011 80.3712 171.473 81.0625 170.773 81.5398C170.072 82.017 169.233 82.2557 168.256 82.2557ZM168.256 80.2159C168.922 80.2159 169.455 79.8807 169.852 79.2102C170.25 78.5398 170.447 77.5341 170.443 76.1932C170.443 75.3106 170.352 74.5758 170.17 73.9886C169.992 73.4015 169.739 72.9602 169.409 72.6648C169.083 72.3693 168.699 72.2216 168.256 72.2216C167.593 72.2216 167.063 72.553 166.665 73.2159C166.267 73.8788 166.066 74.8712 166.062 76.1932C166.062 77.0871 166.152 77.8333 166.33 78.4318C166.511 79.0265 166.767 79.4735 167.097 79.7727C167.426 80.0682 167.812 80.2159 168.256 80.2159ZM17.5057 101.256C16.5284 101.252 15.6875 101.011 14.983 100.534C14.2822 100.057 13.7424 99.3655 13.3636 98.4602C12.9886 97.5549 12.803 96.4659 12.8068 95.1932C12.8068 93.9242 12.9943 92.8428 13.3693 91.9489C13.7481 91.0549 14.2879 90.375 14.9886 89.9091C15.6932 89.4394 16.5322 89.2045 17.5057 89.2045C18.4792 89.2045 19.3163 89.4394 20.017 89.9091C20.7216 90.3788 21.2633 91.0606 21.642 91.9545C22.0208 92.8447 22.2083 93.9242 22.2045 95.1932C22.2045 96.4697 22.0152 97.5606 21.6364 98.4659C21.2614 99.3712 20.7235 100.062 20.0227 100.54C19.322 101.017 18.483 101.256 17.5057 101.256ZM17.5057 99.2159C18.1723 99.2159 18.7045 98.8807 19.1023 98.2102C19.5 97.5398 19.697 96.5341 19.6932 95.1932C19.6932 94.3106 19.6023 93.5758 19.4205 92.9886C19.2424 92.4015 18.9886 91.9602 18.6591 91.6648C18.3333 91.3693 17.9489 91.2216 17.5057 91.2216C16.8428 91.2216 16.3125 91.553 15.9148 92.2159C15.517 92.8788 15.3163 93.8712 15.3125 95.1932C15.3125 96.0871 15.4015 96.8333 15.5795 97.4318C15.7614 98.0265 16.017 98.4735 16.3466 98.7727C16.6761 99.0682 17.0625 99.2159 17.5057 99.2159ZM29.0213 89.3636V101H26.5611V91.6989H26.4929L23.8281 93.3693V91.1875L26.7088 89.3636H29.0213ZM36.3494 101.256C35.3722 101.252 34.5313 101.011 33.8267 100.534C33.1259 100.057 32.5862 99.3655 32.2074 98.4602C31.8324 97.5549 31.6468 96.4659 31.6506 95.1932C31.6506 93.9242 31.8381 92.8428 32.2131 91.9489C32.5919 91.0549 33.1316 90.375 33.8324 89.9091C34.5369 89.4394 35.3759 89.2045 36.3494 89.2045C37.3229 89.2045 38.16 89.4394 38.8608 89.9091C39.5653 90.3788 40.107 91.0606 40.4858 91.9545C40.8646 92.8447 41.0521 93.9242 41.0483 95.1932C41.0483 96.4697 40.8589 97.5606 40.4801 98.4659C40.1051 99.3712 39.5672 100.062 38.8665 100.54C38.1657 101.017 37.3267 101.256 36.3494 101.256ZM36.3494 99.2159C37.0161 99.2159 37.5483 98.8807 37.946 98.2102C38.3438 97.5398 38.5407 96.5341 38.5369 95.1932C38.5369 94.3106 38.446 93.5758 38.2642 92.9886C38.0862 92.4015 37.8324 91.9602 37.5028 91.6648C37.1771 91.3693 36.7926 91.2216 36.3494 91.2216C35.6866 91.2216 35.1563 91.553 34.7585 92.2159C34.3608 92.8788 34.16 93.8712 34.1562 95.1932C34.1562 96.0871 34.2453 96.8333 34.4233 97.4318C34.6051 98.0265 34.8608 98.4735 35.1903 98.7727C35.5199 99.0682 35.9062 99.2159 36.3494 99.2159ZM47.8651 89.3636V101H45.4048V91.6989H45.3366L42.6719 93.3693V91.1875L45.5526 89.3636H47.8651ZM55.1932 101.256C54.2159 101.252 53.375 101.011 52.6705 100.534C51.9697 100.057 51.4299 99.3655 51.0511 98.4602C50.6761 97.5549 50.4905 96.4659 50.4943 95.1932C50.4943 93.9242 50.6818 92.8428 51.0568 91.9489C51.4356 91.0549 51.9754 90.375 52.6761 89.9091C53.3807 89.4394 54.2197 89.2045 55.1932 89.2045C56.1667 89.2045 57.0038 89.4394 57.7045 89.9091C58.4091 90.3788 58.9508 91.0606 59.3295 91.9545C59.7083 92.8447 59.8958 93.9242 59.892 95.1932C59.892 96.4697 59.7027 97.5606 59.3239 98.4659C58.9489 99.3712 58.411 100.062 57.7102 100.54C57.0095 101.017 56.1705 101.256 55.1932 101.256ZM55.1932 99.2159C55.8598 99.2159 56.392 98.8807 56.7898 98.2102C57.1875 97.5398 57.3845 96.5341 57.3807 95.1932C57.3807 94.3106 57.2898 93.5758 57.108 92.9886C56.9299 92.4015 56.6761 91.9602 56.3466 91.6648C56.0208 91.3693 55.6364 91.2216 55.1932 91.2216C54.5303 91.2216 54 91.553 53.6023 92.2159C53.2045 92.8788 53.0038 93.8712 53 95.1932C53 96.0871 53.089 96.8333 53.267 97.4318C53.4489 98.0265 53.7045 98.4735 54.0341 98.7727C54.3636 99.0682 54.75 99.2159 55.1932 99.2159ZM66.7088 89.3636V101H64.2486V91.6989H64.1804L61.5156 93.3693V91.1875L64.3963 89.3636H66.7088ZM74.0369 101.256C73.0597 101.252 72.2188 101.011 71.5142 100.534C70.8134 100.057 70.2737 99.3655 69.8949 98.4602C69.5199 97.5549 69.3343 96.4659 69.3381 95.1932C69.3381 93.9242 69.5256 92.8428 69.9006 91.9489C70.2794 91.0549 70.8191 90.375 71.5199 89.9091C72.2244 89.4394 73.0634 89.2045 74.0369 89.2045C75.0104 89.2045 75.8475 89.4394 76.5483 89.9091C77.2528 90.3788 77.7945 91.0606 78.1733 91.9545C78.5521 92.8447 78.7396 93.9242 78.7358 95.1932C78.7358 96.4697 78.5464 97.5606 78.1676 98.4659C77.7926 99.3712 77.2547 100.062 76.554 100.54C75.8532 101.017 75.0142 101.256 74.0369 101.256ZM74.0369 99.2159C74.7036 99.2159 75.2358 98.8807 75.6335 98.2102C76.0313 97.5398 76.2282 96.5341 76.2244 95.1932C76.2244 94.3106 76.1335 93.5758 75.9517 92.9886C75.7737 92.4015 75.5199 91.9602 75.1903 91.6648C74.8646 91.3693 74.4801 91.2216 74.0369 91.2216C73.3741 91.2216 72.8438 91.553 72.446 92.2159C72.0483 92.8788 71.8475 93.8712 71.8438 95.1932C71.8438 96.0871 71.9328 96.8333 72.1108 97.4318C72.2926 98.0265 72.5483 98.4735 72.8778 98.7727C73.2074 99.0682 73.5938 99.2159 74.0369 99.2159ZM85.5526 89.3636V101H83.0923V91.6989H83.0241L80.3594 93.3693V91.1875L83.2401 89.3636H85.5526ZM92.8807 101.256C91.9034 101.252 91.0625 101.011 90.358 100.534C89.6572 100.057 89.1174 99.3655 88.7386 98.4602C88.3636 97.5549 88.178 96.4659 88.1818 95.1932C88.1818 93.9242 88.3693 92.8428 88.7443 91.9489C89.1231 91.0549 89.6629 90.375 90.3636 89.9091C91.0682 89.4394 91.9072 89.2045 92.8807 89.2045C93.8542 89.2045 94.6913 89.4394 95.392 89.9091C96.0966 90.3788 96.6383 91.0606 97.017 91.9545C97.3958 92.8447 97.5833 93.9242 97.5795 95.1932C97.5795 96.4697 97.3902 97.5606 97.0114 98.4659C96.6364 99.3712 96.0985 100.062 95.3977 100.54C94.697 101.017 93.858 101.256 92.8807 101.256ZM92.8807 99.2159C93.5473 99.2159 94.0795 98.8807 94.4773 98.2102C94.875 97.5398 95.072 96.5341 95.0682 95.1932C95.0682 94.3106 94.9773 93.5758 94.7955 92.9886C94.6174 92.4015 94.3636 91.9602 94.0341 91.6648C93.7083 91.3693 93.3239 91.2216 92.8807 91.2216C92.2178 91.2216 91.6875 91.553 91.2898 92.2159C90.892 92.8788 90.6913 93.8712 90.6875 95.1932C90.6875 96.0871 90.7765 96.8333 90.9545 97.4318C91.1364 98.0265 91.392 98.4735 91.7216 98.7727C92.0511 99.0682 92.4375 99.2159 92.8807 99.2159ZM104.396 89.3636V101H101.936V91.6989H101.868L99.2031 93.3693V91.1875L102.084 89.3636H104.396ZM111.724 101.256C110.747 101.252 109.906 101.011 109.202 100.534C108.501 100.057 107.961 99.3655 107.582 98.4602C107.207 97.5549 107.022 96.4659 107.026 95.1932C107.026 93.9242 107.213 92.8428 107.588 91.9489C107.967 91.0549 108.507 90.375 109.207 89.9091C109.912 89.4394 110.751 89.2045 111.724 89.2045C112.698 89.2045 113.535 89.4394 114.236 89.9091C114.94 90.3788 115.482 91.0606 115.861 91.9545C116.24 92.8447 116.427 93.9242 116.423 95.1932C116.423 96.4697 116.234 97.5606 115.855 98.4659C115.48 99.3712 114.942 100.062 114.241 100.54C113.541 101.017 112.702 101.256 111.724 101.256ZM111.724 99.2159C112.391 99.2159 112.923 98.8807 113.321 98.2102C113.719 97.5398 113.916 96.5341 113.912 95.1932C113.912 94.3106 113.821 93.5758 113.639 92.9886C113.461 92.4015 113.207 91.9602 112.878 91.6648C112.552 91.3693 112.168 91.2216 111.724 91.2216C111.062 91.2216 110.531 91.553 110.134 92.2159C109.736 92.8788 109.535 93.8712 109.531 95.1932C109.531 96.0871 109.62 96.8333 109.798 97.4318C109.98 98.0265 110.236 98.4735 110.565 98.7727C110.895 99.0682 111.281 99.2159 111.724 99.2159ZM123.24 89.3636V101H120.78V91.6989H120.712L118.047 93.3693V91.1875L120.928 89.3636H123.24ZM130.568 101.256C129.591 101.252 128.75 101.011 128.045 100.534C127.345 100.057 126.805 99.3655 126.426 98.4602C126.051 97.5549 125.866 96.4659 125.869 95.1932C125.869 93.9242 126.057 92.8428 126.432 91.9489C126.811 91.0549 127.35 90.375 128.051 89.9091C128.756 89.4394 129.595 89.2045 130.568 89.2045C131.542 89.2045 132.379 89.4394 133.08 89.9091C133.784 90.3788 134.326 91.0606 134.705 91.9545C135.083 92.8447 135.271 93.9242 135.267 95.1932C135.267 96.4697 135.078 97.5606 134.699 98.4659C134.324 99.3712 133.786 100.062 133.085 100.54C132.384 101.017 131.545 101.256 130.568 101.256ZM130.568 99.2159C131.235 99.2159 131.767 98.8807 132.165 98.2102C132.563 97.5398 132.759 96.5341 132.756 95.1932C132.756 94.3106 132.665 93.5758 132.483 92.9886C132.305 92.4015 132.051 91.9602 131.722 91.6648C131.396 91.3693 131.011 91.2216 130.568 91.2216C129.905 91.2216 129.375 91.553 128.977 92.2159C128.58 92.8788 128.379 93.8712 128.375 95.1932C128.375 96.0871 128.464 96.8333 128.642 97.4318C128.824 98.0265 129.08 98.4735 129.409 98.7727C129.739 99.0682 130.125 99.2159 130.568 99.2159ZM142.084 89.3636V101H139.624V91.6989H139.555L136.891 93.3693V91.1875L139.771 89.3636H142.084ZM149.412 101.256C148.435 101.252 147.594 101.011 146.889 100.534C146.188 100.057 145.649 99.3655 145.27 98.4602C144.895 97.5549 144.709 96.4659 144.713 95.1932C144.713 93.9242 144.901 92.8428 145.276 91.9489C145.654 91.0549 146.194 90.375 146.895 89.9091C147.599 89.4394 148.438 89.2045 149.412 89.2045C150.385 89.2045 151.223 89.4394 151.923 89.9091C152.628 90.3788 153.17 91.0606 153.548 91.9545C153.927 92.8447 154.115 93.9242 154.111 95.1932C154.111 96.4697 153.921 97.5606 153.543 98.4659C153.168 99.3712 152.63 100.062 151.929 100.54C151.228 101.017 150.389 101.256 149.412 101.256ZM149.412 99.2159C150.079 99.2159 150.611 98.8807 151.009 98.2102C151.406 97.5398 151.603 96.5341 151.599 95.1932C151.599 94.3106 151.509 93.5758 151.327 92.9886C151.149 92.4015 150.895 91.9602 150.565 91.6648C150.24 91.3693 149.855 91.2216 149.412 91.2216C148.749 91.2216 148.219 91.553 147.821 92.2159C147.423 92.8788 147.223 93.8712 147.219 95.1932C147.219 96.0871 147.308 96.8333 147.486 97.4318C147.668 98.0265 147.923 98.4735 148.253 98.7727C148.582 99.0682 148.969 99.2159 149.412 99.2159ZM160.928 89.3636V101H158.467V91.6989H158.399L155.734 93.3693V91.1875L158.615 89.3636H160.928ZM168.256 101.256C167.278 101.252 166.438 101.011 165.733 100.534C165.032 100.057 164.492 99.3655 164.114 98.4602C163.739 97.5549 163.553 96.4659 163.557 95.1932C163.557 93.9242 163.744 92.8428 164.119 91.9489C164.498 91.0549 165.038 90.375 165.739 89.9091C166.443 89.4394 167.282 89.2045 168.256 89.2045C169.229 89.2045 170.066 89.4394 170.767 89.9091C171.472 90.3788 172.013 91.0606 172.392 91.9545C172.771 92.8447 172.958 93.9242 172.955 95.1932C172.955 96.4697 172.765 97.5606 172.386 98.4659C172.011 99.3712 171.473 100.062 170.773 100.54C170.072 101.017 169.233 101.256 168.256 101.256ZM168.256 99.2159C168.922 99.2159 169.455 98.8807 169.852 98.2102C170.25 97.5398 170.447 96.5341 170.443 95.1932C170.443 94.3106 170.352 93.5758 170.17 92.9886C169.992 92.4015 169.739 91.9602 169.409 91.6648C169.083 91.3693 168.699 91.2216 168.256 91.2216C167.593 91.2216 167.063 91.553 166.665 92.2159C166.267 92.8788 166.066 93.8712 166.062 95.1932C166.062 96.0871 166.152 96.8333 166.33 97.4318C166.511 98.0265 166.767 98.4735 167.097 98.7727C167.426 99.0682 167.812 99.2159 168.256 99.2159ZM17.5057 120.256C16.5284 120.252 15.6875 120.011 14.983 119.534C14.2822 119.057 13.7424 118.366 13.3636 117.46C12.9886 116.555 12.803 115.466 12.8068 114.193C12.8068 112.924 12.9943 111.843 13.3693 110.949C13.7481 110.055 14.2879 109.375 14.9886 108.909C15.6932 108.439 16.5322 108.205 17.5057 108.205C18.4792 108.205 19.3163 108.439 20.017 108.909C20.7216 109.379 21.2633 110.061 21.642 110.955C22.0208 111.845 22.2083 112.924 22.2045 114.193C22.2045 115.47 22.0152 116.561 21.6364 117.466C21.2614 118.371 20.7235 119.062 20.0227 119.54C19.322 120.017 18.483 120.256 17.5057 120.256ZM17.5057 118.216C18.1723 118.216 18.7045 117.881 19.1023 117.21C19.5 116.54 19.697 115.534 19.6932 114.193C19.6932 113.311 19.6023 112.576 19.4205 111.989C19.2424 111.402 18.9886 110.96 18.6591 110.665C18.3333 110.369 17.9489 110.222 17.5057 110.222C16.8428 110.222 16.3125 110.553 15.9148 111.216C15.517 111.879 15.3163 112.871 15.3125 114.193C15.3125 115.087 15.4015 115.833 15.5795 116.432C15.7614 117.027 16.017 117.473 16.3466 117.773C16.6761 118.068 17.0625 118.216 17.5057 118.216ZM29.0213 108.364V120H26.5611V110.699H26.4929L23.8281 112.369V110.188L26.7088 108.364H29.0213ZM36.3494 120.256C35.3722 120.252 34.5313 120.011 33.8267 119.534C33.1259 119.057 32.5862 118.366 32.2074 117.46C31.8324 116.555 31.6468 115.466 31.6506 114.193C31.6506 112.924 31.8381 111.843 32.2131 110.949C32.5919 110.055 33.1316 109.375 33.8324 108.909C34.5369 108.439 35.3759 108.205 36.3494 108.205C37.3229 108.205 38.16 108.439 38.8608 108.909C39.5653 109.379 40.107 110.061 40.4858 110.955C40.8646 111.845 41.0521 112.924 41.0483 114.193C41.0483 115.47 40.8589 116.561 40.4801 117.466C40.1051 118.371 39.5672 119.062 38.8665 119.54C38.1657 120.017 37.3267 120.256 36.3494 120.256ZM36.3494 118.216C37.0161 118.216 37.5483 117.881 37.946 117.21C38.3438 116.54 38.5407 115.534 38.5369 114.193C38.5369 113.311 38.446 112.576 38.2642 111.989C38.0862 111.402 37.8324 110.96 37.5028 110.665C37.1771 110.369 36.7926 110.222 36.3494 110.222C35.6866 110.222 35.1563 110.553 34.7585 111.216C34.3608 111.879 34.16 112.871 34.1562 114.193C34.1562 115.087 34.2453 115.833 34.4233 116.432C34.6051 117.027 34.8608 117.473 35.1903 117.773C35.5199 118.068 35.9062 118.216 36.3494 118.216ZM47.8651 108.364V120H45.4048V110.699H45.3366L42.6719 112.369V110.188L45.5526 108.364H47.8651ZM55.1932 120.256C54.2159 120.252 53.375 120.011 52.6705 119.534C51.9697 119.057 51.4299 118.366 51.0511 117.46C50.6761 116.555 50.4905 115.466 50.4943 114.193C50.4943 112.924 50.6818 111.843 51.0568 110.949C51.4356 110.055 51.9754 109.375 52.6761 108.909C53.3807 108.439 54.2197 108.205 55.1932 108.205C56.1667 108.205 57.0038 108.439 57.7045 108.909C58.4091 109.379 58.9508 110.061 59.3295 110.955C59.7083 111.845 59.8958 112.924 59.892 114.193C59.892 115.47 59.7027 116.561 59.3239 117.466C58.9489 118.371 58.411 119.062 57.7102 119.54C57.0095 120.017 56.1705 120.256 55.1932 120.256ZM55.1932 118.216C55.8598 118.216 56.392 117.881 56.7898 117.21C57.1875 116.54 57.3845 115.534 57.3807 114.193C57.3807 113.311 57.2898 112.576 57.108 111.989C56.9299 111.402 56.6761 110.96 56.3466 110.665C56.0208 110.369 55.6364 110.222 55.1932 110.222C54.5303 110.222 54 110.553 53.6023 111.216C53.2045 111.879 53.0038 112.871 53 114.193C53 115.087 53.089 115.833 53.267 116.432C53.4489 117.027 53.7045 117.473 54.0341 117.773C54.3636 118.068 54.75 118.216 55.1932 118.216ZM66.7088 108.364V120H64.2486V110.699H64.1804L61.5156 112.369V110.188L64.3963 108.364H66.7088ZM74.0369 120.256C73.0597 120.252 72.2188 120.011 71.5142 119.534C70.8134 119.057 70.2737 118.366 69.8949 117.46C69.5199 116.555 69.3343 115.466 69.3381 114.193C69.3381 112.924 69.5256 111.843 69.9006 110.949C70.2794 110.055 70.8191 109.375 71.5199 108.909C72.2244 108.439 73.0634 108.205 74.0369 108.205C75.0104 108.205 75.8475 108.439 76.5483 108.909C77.2528 109.379 77.7945 110.061 78.1733 110.955C78.5521 111.845 78.7396 112.924 78.7358 114.193C78.7358 115.47 78.5464 116.561 78.1676 117.466C77.7926 118.371 77.2547 119.062 76.554 119.54C75.8532 120.017 75.0142 120.256 74.0369 120.256ZM74.0369 118.216C74.7036 118.216 75.2358 117.881 75.6335 117.21C76.0313 116.54 76.2282 115.534 76.2244 114.193C76.2244 113.311 76.1335 112.576 75.9517 111.989C75.7737 111.402 75.5199 110.96 75.1903 110.665C74.8646 110.369 74.4801 110.222 74.0369 110.222C73.3741 110.222 72.8438 110.553 72.446 111.216C72.0483 111.879 71.8475 112.871 71.8438 114.193C71.8438 115.087 71.9328 115.833 72.1108 116.432C72.2926 117.027 72.5483 117.473 72.8778 117.773C73.2074 118.068 73.5938 118.216 74.0369 118.216ZM85.5526 108.364V120H83.0923V110.699H83.0241L80.3594 112.369V110.188L83.2401 108.364H85.5526ZM92.8807 120.256C91.9034 120.252 91.0625 120.011 90.358 119.534C89.6572 119.057 89.1174 118.366 88.7386 117.46C88.3636 116.555 88.178 115.466 88.1818 114.193C88.1818 112.924 88.3693 111.843 88.7443 110.949C89.1231 110.055 89.6629 109.375 90.3636 108.909C91.0682 108.439 91.9072 108.205 92.8807 108.205C93.8542 108.205 94.6913 108.439 95.392 108.909C96.0966 109.379 96.6383 110.061 97.017 110.955C97.3958 111.845 97.5833 112.924 97.5795 114.193C97.5795 115.47 97.3902 116.561 97.0114 117.466C96.6364 118.371 96.0985 119.062 95.3977 119.54C94.697 120.017 93.858 120.256 92.8807 120.256ZM92.8807 118.216C93.5473 118.216 94.0795 117.881 94.4773 117.21C94.875 116.54 95.072 115.534 95.0682 114.193C95.0682 113.311 94.9773 112.576 94.7955 111.989C94.6174 111.402 94.3636 110.96 94.0341 110.665C93.7083 110.369 93.3239 110.222 92.8807 110.222C92.2178 110.222 91.6875 110.553 91.2898 111.216C90.892 111.879 90.6913 112.871 90.6875 114.193C90.6875 115.087 90.7765 115.833 90.9545 116.432C91.1364 117.027 91.392 117.473 91.7216 117.773C92.0511 118.068 92.4375 118.216 92.8807 118.216ZM104.396 108.364V120H101.936V110.699H101.868L99.2031 112.369V110.188L102.084 108.364H104.396ZM111.724 120.256C110.747 120.252 109.906 120.011 109.202 119.534C108.501 119.057 107.961 118.366 107.582 117.46C107.207 116.555 107.022 115.466 107.026 114.193C107.026 112.924 107.213 111.843 107.588 110.949C107.967 110.055 108.507 109.375 109.207 108.909C109.912 108.439 110.751 108.205 111.724 108.205C112.698 108.205 113.535 108.439 114.236 108.909C114.94 109.379 115.482 110.061 115.861 110.955C116.24 111.845 116.427 112.924 116.423 114.193C116.423 115.47 116.234 116.561 115.855 117.466C115.48 118.371 114.942 119.062 114.241 119.54C113.541 120.017 112.702 120.256 111.724 120.256ZM111.724 118.216C112.391 118.216 112.923 117.881 113.321 117.21C113.719 116.54 113.916 115.534 113.912 114.193C113.912 113.311 113.821 112.576 113.639 111.989C113.461 111.402 113.207 110.96 112.878 110.665C112.552 110.369 112.168 110.222 111.724 110.222C111.062 110.222 110.531 110.553 110.134 111.216C109.736 111.879 109.535 112.871 109.531 114.193C109.531 115.087 109.62 115.833 109.798 116.432C109.98 117.027 110.236 117.473 110.565 117.773C110.895 118.068 111.281 118.216 111.724 118.216ZM123.24 108.364V120H120.78V110.699H120.712L118.047 112.369V110.188L120.928 108.364H123.24ZM130.568 120.256C129.591 120.252 128.75 120.011 128.045 119.534C127.345 119.057 126.805 118.366 126.426 117.46C126.051 116.555 125.866 115.466 125.869 114.193C125.869 112.924 126.057 111.843 126.432 110.949C126.811 110.055 127.35 109.375 128.051 108.909C128.756 108.439 129.595 108.205 130.568 108.205C131.542 108.205 132.379 108.439 133.08 108.909C133.784 109.379 134.326 110.061 134.705 110.955C135.083 111.845 135.271 112.924 135.267 114.193C135.267 115.47 135.078 116.561 134.699 117.466C134.324 118.371 133.786 119.062 133.085 119.54C132.384 120.017 131.545 120.256 130.568 120.256ZM130.568 118.216C131.235 118.216 131.767 117.881 132.165 117.21C132.563 116.54 132.759 115.534 132.756 114.193C132.756 113.311 132.665 112.576 132.483 111.989C132.305 111.402 132.051 110.96 131.722 110.665C131.396 110.369 131.011 110.222 130.568 110.222C129.905 110.222 129.375 110.553 128.977 111.216C128.58 111.879 128.379 112.871 128.375 114.193C128.375 115.087 128.464 115.833 128.642 116.432C128.824 117.027 129.08 117.473 129.409 117.773C129.739 118.068 130.125 118.216 130.568 118.216ZM142.084 108.364V120H139.624V110.699H139.555L136.891 112.369V110.188L139.771 108.364H142.084ZM149.412 120.256C148.435 120.252 147.594 120.011 146.889 119.534C146.188 119.057 145.649 118.366 145.27 117.46C144.895 116.555 144.709 115.466 144.713 114.193C144.713 112.924 144.901 111.843 145.276 110.949C145.654 110.055 146.194 109.375 146.895 108.909C147.599 108.439 148.438 108.205 149.412 108.205C150.385 108.205 151.223 108.439 151.923 108.909C152.628 109.379 153.17 110.061 153.548 110.955C153.927 111.845 154.115 112.924 154.111 114.193C154.111 115.47 153.921 116.561 153.543 117.466C153.168 118.371 152.63 119.062 151.929 119.54C151.228 120.017 150.389 120.256 149.412 120.256ZM149.412 118.216C150.079 118.216 150.611 117.881 151.009 117.21C151.406 116.54 151.603 115.534 151.599 114.193C151.599 113.311 151.509 112.576 151.327 111.989C151.149 111.402 150.895 110.96 150.565 110.665C150.24 110.369 149.855 110.222 149.412 110.222C148.749 110.222 148.219 110.553 147.821 111.216C147.423 111.879 147.223 112.871 147.219 114.193C147.219 115.087 147.308 115.833 147.486 116.432C147.668 117.027 147.923 117.473 148.253 117.773C148.582 118.068 148.969 118.216 149.412 118.216ZM160.928 108.364V120H158.467V110.699H158.399L155.734 112.369V110.188L158.615 108.364H160.928ZM168.256 120.256C167.278 120.252 166.438 120.011 165.733 119.534C165.032 119.057 164.492 118.366 164.114 117.46C163.739 116.555 163.553 115.466 163.557 114.193C163.557 112.924 163.744 111.843 164.119 110.949C164.498 110.055 165.038 109.375 165.739 108.909C166.443 108.439 167.282 108.205 168.256 108.205C169.229 108.205 170.066 108.439 170.767 108.909C171.472 109.379 172.013 110.061 172.392 110.955C172.771 111.845 172.958 112.924 172.955 114.193C172.955 115.47 172.765 116.561 172.386 117.466C172.011 118.371 171.473 119.062 170.773 119.54C170.072 120.017 169.233 120.256 168.256 120.256ZM168.256 118.216C168.922 118.216 169.455 117.881 169.852 117.21C170.25 116.54 170.447 115.534 170.443 114.193C170.443 113.311 170.352 112.576 170.17 111.989C169.992 111.402 169.739 110.96 169.409 110.665C169.083 110.369 168.699 110.222 168.256 110.222C167.593 110.222 167.063 110.553 166.665 111.216C166.267 111.879 166.066 112.871 166.062 114.193C166.062 115.087 166.152 115.833 166.33 116.432C166.511 117.027 166.767 117.473 167.097 117.773C167.426 118.068 167.812 118.216 168.256 118.216ZM17.5057 139.256C16.5284 139.252 15.6875 139.011 14.983 138.534C14.2822 138.057 13.7424 137.366 13.3636 136.46C12.9886 135.555 12.803 134.466 12.8068 133.193C12.8068 131.924 12.9943 130.843 13.3693 129.949C13.7481 129.055 14.2879 128.375 14.9886 127.909C15.6932 127.439 16.5322 127.205 17.5057 127.205C18.4792 127.205 19.3163 127.439 20.017 127.909C20.7216 128.379 21.2633 129.061 21.642 129.955C22.0208 130.845 22.2083 131.924 22.2045 133.193C22.2045 134.47 22.0152 135.561 21.6364 136.466C21.2614 137.371 20.7235 138.062 20.0227 138.54C19.322 139.017 18.483 139.256 17.5057 139.256ZM17.5057 137.216C18.1723 137.216 18.7045 136.881 19.1023 136.21C19.5 135.54 19.697 134.534 19.6932 133.193C19.6932 132.311 19.6023 131.576 19.4205 130.989C19.2424 130.402 18.9886 129.96 18.6591 129.665C18.3333 129.369 17.9489 129.222 17.5057 129.222C16.8428 129.222 16.3125 129.553 15.9148 130.216C15.517 130.879 15.3163 131.871 15.3125 133.193C15.3125 134.087 15.4015 134.833 15.5795 135.432C15.7614 136.027 16.017 136.473 16.3466 136.773C16.6761 137.068 17.0625 137.216 17.5057 137.216ZM29.0213 127.364V139H26.5611V129.699H26.4929L23.8281 131.369V129.188L26.7088 127.364H29.0213ZM36.3494 139.256C35.3722 139.252 34.5313 139.011 33.8267 138.534C33.1259 138.057 32.5862 137.366 32.2074 136.46C31.8324 135.555 31.6468 134.466 31.6506 133.193C31.6506 131.924 31.8381 130.843 32.2131 129.949C32.5919 129.055 33.1316 128.375 33.8324 127.909C34.5369 127.439 35.3759 127.205 36.3494 127.205C37.3229 127.205 38.16 127.439 38.8608 127.909C39.5653 128.379 40.107 129.061 40.4858 129.955C40.8646 130.845 41.0521 131.924 41.0483 133.193C41.0483 134.47 40.8589 135.561 40.4801 136.466C40.1051 137.371 39.5672 138.062 38.8665 138.54C38.1657 139.017 37.3267 139.256 36.3494 139.256ZM36.3494 137.216C37.0161 137.216 37.5483 136.881 37.946 136.21C38.3438 135.54 38.5407 134.534 38.5369 133.193C38.5369 132.311 38.446 131.576 38.2642 130.989C38.0862 130.402 37.8324 129.96 37.5028 129.665C37.1771 129.369 36.7926 129.222 36.3494 129.222C35.6866 129.222 35.1563 129.553 34.7585 130.216C34.3608 130.879 34.16 131.871 34.1562 133.193C34.1562 134.087 34.2453 134.833 34.4233 135.432C34.6051 136.027 34.8608 136.473 35.1903 136.773C35.5199 137.068 35.9062 137.216 36.3494 137.216ZM47.8651 127.364V139H45.4048V129.699H45.3366L42.6719 131.369V129.188L45.5526 127.364H47.8651ZM55.1932 139.256C54.2159 139.252 53.375 139.011 52.6705 138.534C51.9697 138.057 51.4299 137.366 51.0511 136.46C50.6761 135.555 50.4905 134.466 50.4943 133.193C50.4943 131.924 50.6818 130.843 51.0568 129.949C51.4356 129.055 51.9754 128.375 52.6761 127.909C53.3807 127.439 54.2197 127.205 55.1932 127.205C56.1667 127.205 57.0038 127.439 57.7045 127.909C58.4091 128.379 58.9508 129.061 59.3295 129.955C59.7083 130.845 59.8958 131.924 59.892 133.193C59.892 134.47 59.7027 135.561 59.3239 136.466C58.9489 137.371 58.411 138.062 57.7102 138.54C57.0095 139.017 56.1705 139.256 55.1932 139.256ZM55.1932 137.216C55.8598 137.216 56.392 136.881 56.7898 136.21C57.1875 135.54 57.3845 134.534 57.3807 133.193C57.3807 132.311 57.2898 131.576 57.108 130.989C56.9299 130.402 56.6761 129.96 56.3466 129.665C56.0208 129.369 55.6364 129.222 55.1932 129.222C54.5303 129.222 54 129.553 53.6023 130.216C53.2045 130.879 53.0038 131.871 53 133.193C53 134.087 53.089 134.833 53.267 135.432C53.4489 136.027 53.7045 136.473 54.0341 136.773C54.3636 137.068 54.75 137.216 55.1932 137.216ZM66.7088 127.364V139H64.2486V129.699H64.1804L61.5156 131.369V129.188L64.3963 127.364H66.7088ZM74.0369 139.256C73.0597 139.252 72.2188 139.011 71.5142 138.534C70.8134 138.057 70.2737 137.366 69.8949 136.46C69.5199 135.555 69.3343 134.466 69.3381 133.193C69.3381 131.924 69.5256 130.843 69.9006 129.949C70.2794 129.055 70.8191 128.375 71.5199 127.909C72.2244 127.439 73.0634 127.205 74.0369 127.205C75.0104 127.205 75.8475 127.439 76.5483 127.909C77.2528 128.379 77.7945 129.061 78.1733 129.955C78.5521 130.845 78.7396 131.924 78.7358 133.193C78.7358 134.47 78.5464 135.561 78.1676 136.466C77.7926 137.371 77.2547 138.062 76.554 138.54C75.8532 139.017 75.0142 139.256 74.0369 139.256ZM74.0369 137.216C74.7036 137.216 75.2358 136.881 75.6335 136.21C76.0313 135.54 76.2282 134.534 76.2244 133.193C76.2244 132.311 76.1335 131.576 75.9517 130.989C75.7737 130.402 75.5199 129.96 75.1903 129.665C74.8646 129.369 74.4801 129.222 74.0369 129.222C73.3741 129.222 72.8438 129.553 72.446 130.216C72.0483 130.879 71.8475 131.871 71.8438 133.193C71.8438 134.087 71.9328 134.833 72.1108 135.432C72.2926 136.027 72.5483 136.473 72.8778 136.773C73.2074 137.068 73.5938 137.216 74.0369 137.216ZM85.5526 127.364V139H83.0923V129.699H83.0241L80.3594 131.369V129.188L83.2401 127.364H85.5526ZM92.8807 139.256C91.9034 139.252 91.0625 139.011 90.358 138.534C89.6572 138.057 89.1174 137.366 88.7386 136.46C88.3636 135.555 88.178 134.466 88.1818 133.193C88.1818 131.924 88.3693 130.843 88.7443 129.949C89.1231 129.055 89.6629 128.375 90.3636 127.909C91.0682 127.439 91.9072 127.205 92.8807 127.205C93.8542 127.205 94.6913 127.439 95.392 127.909C96.0966 128.379 96.6383 129.061 97.017 129.955C97.3958 130.845 97.5833 131.924 97.5795 133.193C97.5795 134.47 97.3902 135.561 97.0114 136.466C96.6364 137.371 96.0985 138.062 95.3977 138.54C94.697 139.017 93.858 139.256 92.8807 139.256ZM92.8807 137.216C93.5473 137.216 94.0795 136.881 94.4773 136.21C94.875 135.54 95.072 134.534 95.0682 133.193C95.0682 132.311 94.9773 131.576 94.7955 130.989C94.6174 130.402 94.3636 129.96 94.0341 129.665C93.7083 129.369 93.3239 129.222 92.8807 129.222C92.2178 129.222 91.6875 129.553 91.2898 130.216C90.892 130.879 90.6913 131.871 90.6875 133.193C90.6875 134.087 90.7765 134.833 90.9545 135.432C91.1364 136.027 91.392 136.473 91.7216 136.773C92.0511 137.068 92.4375 137.216 92.8807 137.216ZM104.396 127.364V139H101.936V129.699H101.868L99.2031 131.369V129.188L102.084 127.364H104.396ZM111.724 139.256C110.747 139.252 109.906 139.011 109.202 138.534C108.501 138.057 107.961 137.366 107.582 136.46C107.207 135.555 107.022 134.466 107.026 133.193C107.026 131.924 107.213 130.843 107.588 129.949C107.967 129.055 108.507 128.375 109.207 127.909C109.912 127.439 110.751 127.205 111.724 127.205C112.698 127.205 113.535 127.439 114.236 127.909C114.94 128.379 115.482 129.061 115.861 129.955C116.24 130.845 116.427 131.924 116.423 133.193C116.423 134.47 116.234 135.561 115.855 136.466C115.48 137.371 114.942 138.062 114.241 138.54C113.541 139.017 112.702 139.256 111.724 139.256ZM111.724 137.216C112.391 137.216 112.923 136.881 113.321 136.21C113.719 135.54 113.916 134.534 113.912 133.193C113.912 132.311 113.821 131.576 113.639 130.989C113.461 130.402 113.207 129.96 112.878 129.665C112.552 129.369 112.168 129.222 111.724 129.222C111.062 129.222 110.531 129.553 110.134 130.216C109.736 130.879 109.535 131.871 109.531 133.193C109.531 134.087 109.62 134.833 109.798 135.432C109.98 136.027 110.236 136.473 110.565 136.773C110.895 137.068 111.281 137.216 111.724 137.216ZM123.24 127.364V139H120.78V129.699H120.712L118.047 131.369V129.188L120.928 127.364H123.24ZM130.568 139.256C129.591 139.252 128.75 139.011 128.045 138.534C127.345 138.057 126.805 137.366 126.426 136.46C126.051 135.555 125.866 134.466 125.869 133.193C125.869 131.924 126.057 130.843 126.432 129.949C126.811 129.055 127.35 128.375 128.051 127.909C128.756 127.439 129.595 127.205 130.568 127.205C131.542 127.205 132.379 127.439 133.08 127.909C133.784 128.379 134.326 129.061 134.705 129.955C135.083 130.845 135.271 131.924 135.267 133.193C135.267 134.47 135.078 135.561 134.699 136.466C134.324 137.371 133.786 138.062 133.085 138.54C132.384 139.017 131.545 139.256 130.568 139.256ZM130.568 137.216C131.235 137.216 131.767 136.881 132.165 136.21C132.563 135.54 132.759 134.534 132.756 133.193C132.756 132.311 132.665 131.576 132.483 130.989C132.305 130.402 132.051 129.96 131.722 129.665C131.396 129.369 131.011 129.222 130.568 129.222C129.905 129.222 129.375 129.553 128.977 130.216C128.58 130.879 128.379 131.871 128.375 133.193C128.375 134.087 128.464 134.833 128.642 135.432C128.824 136.027 129.08 136.473 129.409 136.773C129.739 137.068 130.125 137.216 130.568 137.216ZM142.084 127.364V139H139.624V129.699H139.555L136.891 131.369V129.188L139.771 127.364H142.084ZM149.412 139.256C148.435 139.252 147.594 139.011 146.889 138.534C146.188 138.057 145.649 137.366 145.27 136.46C144.895 135.555 144.709 134.466 144.713 133.193C144.713 131.924 144.901 130.843 145.276 129.949C145.654 129.055 146.194 128.375 146.895 127.909C147.599 127.439 148.438 127.205 149.412 127.205C150.385 127.205 151.223 127.439 151.923 127.909C152.628 128.379 153.17 129.061 153.548 129.955C153.927 130.845 154.115 131.924 154.111 133.193C154.111 134.47 153.921 135.561 153.543 136.466C153.168 137.371 152.63 138.062 151.929 138.54C151.228 139.017 150.389 139.256 149.412 139.256ZM149.412 137.216C150.079 137.216 150.611 136.881 151.009 136.21C151.406 135.54 151.603 134.534 151.599 133.193C151.599 132.311 151.509 131.576 151.327 130.989C151.149 130.402 150.895 129.96 150.565 129.665C150.24 129.369 149.855 129.222 149.412 129.222C148.749 129.222 148.219 129.553 147.821 130.216C147.423 130.879 147.223 131.871 147.219 133.193C147.219 134.087 147.308 134.833 147.486 135.432C147.668 136.027 147.923 136.473 148.253 136.773C148.582 137.068 148.969 137.216 149.412 137.216ZM160.928 127.364V139H158.467V129.699H158.399L155.734 131.369V129.188L158.615 127.364H160.928ZM168.256 139.256C167.278 139.252 166.438 139.011 165.733 138.534C165.032 138.057 164.492 137.366 164.114 136.46C163.739 135.555 163.553 134.466 163.557 133.193C163.557 131.924 163.744 130.843 164.119 129.949C164.498 129.055 165.038 128.375 165.739 127.909C166.443 127.439 167.282 127.205 168.256 127.205C169.229 127.205 170.066 127.439 170.767 127.909C171.472 128.379 172.013 129.061 172.392 129.955C172.771 130.845 172.958 131.924 172.955 133.193C172.955 134.47 172.765 135.561 172.386 136.466C172.011 137.371 171.473 138.062 170.773 138.54C170.072 139.017 169.233 139.256 168.256 139.256ZM168.256 137.216C168.922 137.216 169.455 136.881 169.852 136.21C170.25 135.54 170.447 134.534 170.443 133.193C170.443 132.311 170.352 131.576 170.17 130.989C169.992 130.402 169.739 129.96 169.409 129.665C169.083 129.369 168.699 129.222 168.256 129.222C167.593 129.222 167.063 129.553 166.665 130.216C166.267 130.879 166.066 131.871 166.062 133.193C166.062 134.087 166.152 134.833 166.33 135.432C166.511 136.027 166.767 136.473 167.097 136.773C167.426 137.068 167.812 137.216 168.256 137.216ZM17.5057 158.256C16.5284 158.252 15.6875 158.011 14.983 157.534C14.2822 157.057 13.7424 156.366 13.3636 155.46C12.9886 154.555 12.803 153.466 12.8068 152.193C12.8068 150.924 12.9943 149.843 13.3693 148.949C13.7481 148.055 14.2879 147.375 14.9886 146.909C15.6932 146.439 16.5322 146.205 17.5057 146.205C18.4792 146.205 19.3163 146.439 20.017 146.909C20.7216 147.379 21.2633 148.061 21.642 148.955C22.0208 149.845 22.2083 150.924 22.2045 152.193C22.2045 153.47 22.0152 154.561 21.6364 155.466C21.2614 156.371 20.7235 157.062 20.0227 157.54C19.322 158.017 18.483 158.256 17.5057 158.256ZM17.5057 156.216C18.1723 156.216 18.7045 155.881 19.1023 155.21C19.5 154.54 19.697 153.534 19.6932 152.193C19.6932 151.311 19.6023 150.576 19.4205 149.989C19.2424 149.402 18.9886 148.96 18.6591 148.665C18.3333 148.369 17.9489 148.222 17.5057 148.222C16.8428 148.222 16.3125 148.553 15.9148 149.216C15.517 149.879 15.3163 150.871 15.3125 152.193C15.3125 153.087 15.4015 153.833 15.5795 154.432C15.7614 155.027 16.017 155.473 16.3466 155.773C16.6761 156.068 17.0625 156.216 17.5057 156.216ZM29.0213 146.364V158H26.5611V148.699H26.4929L23.8281 150.369V148.188L26.7088 146.364H29.0213ZM36.3494 158.256C35.3722 158.252 34.5313 158.011 33.8267 157.534C33.1259 157.057 32.5862 156.366 32.2074 155.46C31.8324 154.555 31.6468 153.466 31.6506 152.193C31.6506 150.924 31.8381 149.843 32.2131 148.949C32.5919 148.055 33.1316 147.375 33.8324 146.909C34.5369 146.439 35.3759 146.205 36.3494 146.205C37.3229 146.205 38.16 146.439 38.8608 146.909C39.5653 147.379 40.107 148.061 40.4858 148.955C40.8646 149.845 41.0521 150.924 41.0483 152.193C41.0483 153.47 40.8589 154.561 40.4801 155.466C40.1051 156.371 39.5672 157.062 38.8665 157.54C38.1657 158.017 37.3267 158.256 36.3494 158.256ZM36.3494 156.216C37.0161 156.216 37.5483 155.881 37.946 155.21C38.3438 154.54 38.5407 153.534 38.5369 152.193C38.5369 151.311 38.446 150.576 38.2642 149.989C38.0862 149.402 37.8324 148.96 37.5028 148.665C37.1771 148.369 36.7926 148.222 36.3494 148.222C35.6866 148.222 35.1563 148.553 34.7585 149.216C34.3608 149.879 34.16 150.871 34.1562 152.193C34.1562 153.087 34.2453 153.833 34.4233 154.432C34.6051 155.027 34.8608 155.473 35.1903 155.773C35.5199 156.068 35.9062 156.216 36.3494 156.216ZM47.8651 146.364V158H45.4048V148.699H45.3366L42.6719 150.369V148.188L45.5526 146.364H47.8651ZM55.1932 158.256C54.2159 158.252 53.375 158.011 52.6705 157.534C51.9697 157.057 51.4299 156.366 51.0511 155.46C50.6761 154.555 50.4905 153.466 50.4943 152.193C50.4943 150.924 50.6818 149.843 51.0568 148.949C51.4356 148.055 51.9754 147.375 52.6761 146.909C53.3807 146.439 54.2197 146.205 55.1932 146.205C56.1667 146.205 57.0038 146.439 57.7045 146.909C58.4091 147.379 58.9508 148.061 59.3295 148.955C59.7083 149.845 59.8958 150.924 59.892 152.193C59.892 153.47 59.7027 154.561 59.3239 155.466C58.9489 156.371 58.411 157.062 57.7102 157.54C57.0095 158.017 56.1705 158.256 55.1932 158.256ZM55.1932 156.216C55.8598 156.216 56.392 155.881 56.7898 155.21C57.1875 154.54 57.3845 153.534 57.3807 152.193C57.3807 151.311 57.2898 150.576 57.108 149.989C56.9299 149.402 56.6761 148.96 56.3466 148.665C56.0208 148.369 55.6364 148.222 55.1932 148.222C54.5303 148.222 54 148.553 53.6023 149.216C53.2045 149.879 53.0038 150.871 53 152.193C53 153.087 53.089 153.833 53.267 154.432C53.4489 155.027 53.7045 155.473 54.0341 155.773C54.3636 156.068 54.75 156.216 55.1932 156.216ZM66.7088 146.364V158H64.2486V148.699H64.1804L61.5156 150.369V148.188L64.3963 146.364H66.7088ZM74.0369 158.256C73.0597 158.252 72.2188 158.011 71.5142 157.534C70.8134 157.057 70.2737 156.366 69.8949 155.46C69.5199 154.555 69.3343 153.466 69.3381 152.193C69.3381 150.924 69.5256 149.843 69.9006 148.949C70.2794 148.055 70.8191 147.375 71.5199 146.909C72.2244 146.439 73.0634 146.205 74.0369 146.205C75.0104 146.205 75.8475 146.439 76.5483 146.909C77.2528 147.379 77.7945 148.061 78.1733 148.955C78.5521 149.845 78.7396 150.924 78.7358 152.193C78.7358 153.47 78.5464 154.561 78.1676 155.466C77.7926 156.371 77.2547 157.062 76.554 157.54C75.8532 158.017 75.0142 158.256 74.0369 158.256ZM74.0369 156.216C74.7036 156.216 75.2358 155.881 75.6335 155.21C76.0313 154.54 76.2282 153.534 76.2244 152.193C76.2244 151.311 76.1335 150.576 75.9517 149.989C75.7737 149.402 75.5199 148.96 75.1903 148.665C74.8646 148.369 74.4801 148.222 74.0369 148.222C73.3741 148.222 72.8438 148.553 72.446 149.216C72.0483 149.879 71.8475 150.871 71.8438 152.193C71.8438 153.087 71.9328 153.833 72.1108 154.432C72.2926 155.027 72.5483 155.473 72.8778 155.773C73.2074 156.068 73.5938 156.216 74.0369 156.216ZM85.5526 146.364V158H83.0923V148.699H83.0241L80.3594 150.369V148.188L83.2401 146.364H85.5526ZM92.8807 158.256C91.9034 158.252 91.0625 158.011 90.358 157.534C89.6572 157.057 89.1174 156.366 88.7386 155.46C88.3636 154.555 88.178 153.466 88.1818 152.193C88.1818 150.924 88.3693 149.843 88.7443 148.949C89.1231 148.055 89.6629 147.375 90.3636 146.909C91.0682 146.439 91.9072 146.205 92.8807 146.205C93.8542 146.205 94.6913 146.439 95.392 146.909C96.0966 147.379 96.6383 148.061 97.017 148.955C97.3958 149.845 97.5833 150.924 97.5795 152.193C97.5795 153.47 97.3902 154.561 97.0114 155.466C96.6364 156.371 96.0985 157.062 95.3977 157.54C94.697 158.017 93.858 158.256 92.8807 158.256ZM92.8807 156.216C93.5473 156.216 94.0795 155.881 94.4773 155.21C94.875 154.54 95.072 153.534 95.0682 152.193C95.0682 151.311 94.9773 150.576 94.7955 149.989C94.6174 149.402 94.3636 148.96 94.0341 148.665C93.7083 148.369 93.3239 148.222 92.8807 148.222C92.2178 148.222 91.6875 148.553 91.2898 149.216C90.892 149.879 90.6913 150.871 90.6875 152.193C90.6875 153.087 90.7765 153.833 90.9545 154.432C91.1364 155.027 91.392 155.473 91.7216 155.773C92.0511 156.068 92.4375 156.216 92.8807 156.216ZM104.396 146.364V158H101.936V148.699H101.868L99.2031 150.369V148.188L102.084 146.364H104.396ZM111.724 158.256C110.747 158.252 109.906 158.011 109.202 157.534C108.501 157.057 107.961 156.366 107.582 155.46C107.207 154.555 107.022 153.466 107.026 152.193C107.026 150.924 107.213 149.843 107.588 148.949C107.967 148.055 108.507 147.375 109.207 146.909C109.912 146.439 110.751 146.205 111.724 146.205C112.698 146.205 113.535 146.439 114.236 146.909C114.94 147.379 115.482 148.061 115.861 148.955C116.24 149.845 116.427 150.924 116.423 152.193C116.423 153.47 116.234 154.561 115.855 155.466C115.48 156.371 114.942 157.062 114.241 157.54C113.541 158.017 112.702 158.256 111.724 158.256ZM111.724 156.216C112.391 156.216 112.923 155.881 113.321 155.21C113.719 154.54 113.916 153.534 113.912 152.193C113.912 151.311 113.821 150.576 113.639 149.989C113.461 149.402 113.207 148.96 112.878 148.665C112.552 148.369 112.168 148.222 111.724 148.222C111.062 148.222 110.531 148.553 110.134 149.216C109.736 149.879 109.535 150.871 109.531 152.193C109.531 153.087 109.62 153.833 109.798 154.432C109.98 155.027 110.236 155.473 110.565 155.773C110.895 156.068 111.281 156.216 111.724 156.216ZM123.24 146.364V158H120.78V148.699H120.712L118.047 150.369V148.188L120.928 146.364H123.24ZM130.568 158.256C129.591 158.252 128.75 158.011 128.045 157.534C127.345 157.057 126.805 156.366 126.426 155.46C126.051 154.555 125.866 153.466 125.869 152.193C125.869 150.924 126.057 149.843 126.432 148.949C126.811 148.055 127.35 147.375 128.051 146.909C128.756 146.439 129.595 146.205 130.568 146.205C131.542 146.205 132.379 146.439 133.08 146.909C133.784 147.379 134.326 148.061 134.705 148.955C135.083 149.845 135.271 150.924 135.267 152.193C135.267 153.47 135.078 154.561 134.699 155.466C134.324 156.371 133.786 157.062 133.085 157.54C132.384 158.017 131.545 158.256 130.568 158.256ZM130.568 156.216C131.235 156.216 131.767 155.881 132.165 155.21C132.563 154.54 132.759 153.534 132.756 152.193C132.756 151.311 132.665 150.576 132.483 149.989C132.305 149.402 132.051 148.96 131.722 148.665C131.396 148.369 131.011 148.222 130.568 148.222C129.905 148.222 129.375 148.553 128.977 149.216C128.58 149.879 128.379 150.871 128.375 152.193C128.375 153.087 128.464 153.833 128.642 154.432C128.824 155.027 129.08 155.473 129.409 155.773C129.739 156.068 130.125 156.216 130.568 156.216ZM142.084 146.364V158H139.624V148.699H139.555L136.891 150.369V148.188L139.771 146.364H142.084ZM149.412 158.256C148.435 158.252 147.594 158.011 146.889 157.534C146.188 157.057 145.649 156.366 145.27 155.46C144.895 154.555 144.709 153.466 144.713 152.193C144.713 150.924 144.901 149.843 145.276 148.949C145.654 148.055 146.194 147.375 146.895 146.909C147.599 146.439 148.438 146.205 149.412 146.205C150.385 146.205 151.223 146.439 151.923 146.909C152.628 147.379 153.17 148.061 153.548 148.955C153.927 149.845 154.115 150.924 154.111 152.193C154.111 153.47 153.921 154.561 153.543 155.466C153.168 156.371 152.63 157.062 151.929 157.54C151.228 158.017 150.389 158.256 149.412 158.256ZM149.412 156.216C150.079 156.216 150.611 155.881 151.009 155.21C151.406 154.54 151.603 153.534 151.599 152.193C151.599 151.311 151.509 150.576 151.327 149.989C151.149 149.402 150.895 148.96 150.565 148.665C150.24 148.369 149.855 148.222 149.412 148.222C148.749 148.222 148.219 148.553 147.821 149.216C147.423 149.879 147.223 150.871 147.219 152.193C147.219 153.087 147.308 153.833 147.486 154.432C147.668 155.027 147.923 155.473 148.253 155.773C148.582 156.068 148.969 156.216 149.412 156.216ZM160.928 146.364V158H158.467V148.699H158.399L155.734 150.369V148.188L158.615 146.364H160.928ZM168.256 158.256C167.278 158.252 166.438 158.011 165.733 157.534C165.032 157.057 164.492 156.366 164.114 155.46C163.739 154.555 163.553 153.466 163.557 152.193C163.557 150.924 163.744 149.843 164.119 148.949C164.498 148.055 165.038 147.375 165.739 146.909C166.443 146.439 167.282 146.205 168.256 146.205C169.229 146.205 170.066 146.439 170.767 146.909C171.472 147.379 172.013 148.061 172.392 148.955C172.771 149.845 172.958 150.924 172.955 152.193C172.955 153.47 172.765 154.561 172.386 155.466C172.011 156.371 171.473 157.062 170.773 157.54C170.072 158.017 169.233 158.256 168.256 158.256ZM168.256 156.216C168.922 156.216 169.455 155.881 169.852 155.21C170.25 154.54 170.447 153.534 170.443 152.193C170.443 151.311 170.352 150.576 170.17 149.989C169.992 149.402 169.739 148.96 169.409 148.665C169.083 148.369 168.699 148.222 168.256 148.222C167.593 148.222 167.063 148.553 166.665 149.216C166.267 149.879 166.066 150.871 166.062 152.193C166.062 153.087 166.152 153.833 166.33 154.432C166.511 155.027 166.767 155.473 167.097 155.773C167.426 156.068 167.812 156.216 168.256 156.216Z" fill="#464DAF"/>
</svg>
