<svg width="193" height="194" viewBox="0 0 193 194" fill="none" xmlns="http://www.w3.org/2000/svg">
<rect width="193" height="194" fill="white"/>
<path d="M96.4893 167.244L57.1513 99.9568L135.092 99.5325L96.4893 167.244Z" fill="#464DAF"/>
<rect x="80" y="138" width="33" height="36" fill="#464DAF"/>
<path d="M62.2401 40.2557C61.2628 40.2519 60.4219 40.0114 59.7173 39.5341C59.0166 39.0568 58.4768 38.3655 58.098 37.4602C57.723 36.5549 57.5374 35.4659 57.5412 34.1932C57.5412 32.9242 57.7287 31.8428 58.1037 30.9489C58.4825 30.0549 59.0223 29.375 59.723 28.9091C60.4276 28.4394 61.2666 28.2045 62.2401 28.2045C63.2135 28.2045 64.0507 28.4394 64.7514 28.9091C65.456 29.3788 65.9976 30.0606 66.3764 30.9545C66.7552 31.8447 66.9427 32.9242 66.9389 34.1932C66.9389 35.4697 66.7495 36.5606 66.3707 37.4659C65.9957 38.3712 65.4579 39.0625 64.7571 39.5398C64.0563 40.017 63.2173 40.2557 62.2401 40.2557ZM62.2401 38.2159C62.9067 38.2159 63.4389 37.8807 63.8366 37.2102C64.2344 36.5398 64.4313 35.5341 64.4276 34.1932C64.4276 33.3106 64.3366 32.5758 64.1548 31.9886C63.9768 31.4015 63.723 30.9602 63.3935 30.6648C63.0677 30.3693 62.6832 30.2216 62.2401 30.2216C61.5772 30.2216 61.0469 30.553 60.6491 31.2159C60.2514 31.8788 60.0507 32.8712 60.0469 34.1932C60.0469 35.0871 60.1359 35.8333 60.3139 36.4318C60.4957 37.0265 60.7514 37.4735 61.081 37.7727C61.4105 38.0682 61.7969 38.2159 62.2401 38.2159ZM73.7557 28.3636V40H71.2955V30.6989H71.2273L68.5625 32.3693V30.1875L71.4432 28.3636H73.7557ZM81.0838 40.2557C80.1065 40.2519 79.2656 40.0114 78.5611 39.5341C77.8603 39.0568 77.3205 38.3655 76.9418 37.4602C76.5668 36.5549 76.3812 35.4659 76.3849 34.1932C76.3849 32.9242 76.5724 31.8428 76.9474 30.9489C77.3262 30.0549 77.866 29.375 78.5668 28.9091C79.2713 28.4394 80.1103 28.2045 81.0838 28.2045C82.0573 28.2045 82.8944 28.4394 83.5952 28.9091C84.2997 29.3788 84.8414 30.0606 85.2202 30.9545C85.599 31.8447 85.7865 32.9242 85.7827 34.1932C85.7827 35.4697 85.5933 36.5606 85.2145 37.4659C84.8395 38.3712 84.3016 39.0625 83.6009 39.5398C82.9001 40.017 82.0611 40.2557 81.0838 40.2557ZM81.0838 38.2159C81.7505 38.2159 82.2827 37.8807 82.6804 37.2102C83.0781 36.5398 83.2751 35.5341 83.2713 34.1932C83.2713 33.3106 83.1804 32.5758 82.9986 31.9886C82.8205 31.4015 82.5668 30.9602 82.2372 30.6648C81.9115 30.3693 81.527 30.2216 81.0838 30.2216C80.4209 30.2216 79.8906 30.553 79.4929 31.2159C79.0952 31.8788 78.8944 32.8712 78.8906 34.1932C78.8906 35.0871 78.9796 35.8333 79.1577 36.4318C79.3395 37.0265 79.5952 37.4735 79.9247 37.7727C80.2543 38.0682 80.6406 38.2159 81.0838 38.2159ZM92.5994 28.3636V40H90.1392V30.6989H90.071L87.4062 32.3693V30.1875L90.2869 28.3636H92.5994ZM99.9276 40.2557C98.9503 40.2519 98.1094 40.0114 97.4048 39.5341C96.7041 39.0568 96.1643 38.3655 95.7855 37.4602C95.4105 36.5549 95.2249 35.4659 95.2287 34.1932C95.2287 32.9242 95.4162 31.8428 95.7912 30.9489C96.17 30.0549 96.7098 29.375 97.4105 28.9091C98.1151 28.4394 98.9541 28.2045 99.9276 28.2045C100.901 28.2045 101.738 28.4394 102.439 28.9091C103.143 29.3788 103.685 30.0606 104.064 30.9545C104.443 31.8447 104.63 32.9242 104.626 34.1932C104.626 35.4697 104.437 36.5606 104.058 37.4659C103.683 38.3712 103.145 39.0625 102.445 39.5398C101.744 40.017 100.905 40.2557 99.9276 40.2557ZM99.9276 38.2159C100.594 38.2159 101.126 37.8807 101.524 37.2102C101.922 36.5398 102.119 35.5341 102.115 34.1932C102.115 33.3106 102.024 32.5758 101.842 31.9886C101.664 31.4015 101.411 30.9602 101.081 30.6648C100.755 30.3693 100.371 30.2216 99.9276 30.2216C99.2647 30.2216 98.7344 30.553 98.3366 31.2159C97.9389 31.8788 97.7382 32.8712 97.7344 34.1932C97.7344 35.0871 97.8234 35.8333 98.0014 36.4318C98.1832 37.0265 98.4389 37.4735 98.7685 37.7727C99.098 38.0682 99.4844 38.2159 99.9276 38.2159ZM111.443 28.3636V40H108.983V30.6989H108.915L106.25 32.3693V30.1875L109.131 28.3636H111.443ZM118.771 40.2557C117.794 40.2519 116.953 40.0114 116.249 39.5341C115.548 39.0568 115.008 38.3655 114.629 37.4602C114.254 36.5549 114.069 35.4659 114.072 34.1932C114.072 32.9242 114.26 31.8428 114.635 30.9489C115.014 30.0549 115.554 29.375 116.254 28.9091C116.959 28.4394 117.798 28.2045 118.771 28.2045C119.745 28.2045 120.582 28.4394 121.283 28.9091C121.987 29.3788 122.529 30.0606 122.908 30.9545C123.286 31.8447 123.474 32.9242 123.47 34.1932C123.47 35.4697 123.281 36.5606 122.902 37.4659C122.527 38.3712 121.989 39.0625 121.288 39.5398C120.588 40.017 119.749 40.2557 118.771 40.2557ZM118.771 38.2159C119.438 38.2159 119.97 37.8807 120.368 37.2102C120.766 36.5398 120.963 35.5341 120.959 34.1932C120.959 33.3106 120.868 32.5758 120.686 31.9886C120.508 31.4015 120.254 30.9602 119.925 30.6648C119.599 30.3693 119.214 30.2216 118.771 30.2216C118.108 30.2216 117.578 30.553 117.18 31.2159C116.783 31.8788 116.582 32.8712 116.578 34.1932C116.578 35.0871 116.667 35.8333 116.845 36.4318C117.027 37.0265 117.283 37.4735 117.612 37.7727C117.942 38.0682 118.328 38.2159 118.771 38.2159ZM130.287 28.3636V40H127.827V30.6989H127.759L125.094 32.3693V30.1875L127.974 28.3636H130.287ZM73.8494 47.3636V59H71.3892V49.6989H71.321L68.6562 51.3693V49.1875L71.5369 47.3636H73.8494ZM81.1776 59.2557C80.2003 59.2519 79.3594 59.0114 78.6548 58.5341C77.9541 58.0568 77.4143 57.3655 77.0355 56.4602C76.6605 55.5549 76.4749 54.4659 76.4787 53.1932C76.4787 51.9242 76.6662 50.8428 77.0412 49.9489C77.42 49.0549 77.9598 48.375 78.6605 47.9091C79.3651 47.4394 80.2041 47.2045 81.1776 47.2045C82.151 47.2045 82.9882 47.4394 83.6889 47.9091C84.3935 48.3788 84.9351 49.0606 85.3139 49.9545C85.6927 50.8447 85.8802 51.9242 85.8764 53.1932C85.8764 54.4697 85.687 55.5606 85.3082 56.4659C84.9332 57.3712 84.3954 58.0625 83.6946 58.5398C82.9938 59.017 82.1548 59.2557 81.1776 59.2557ZM81.1776 57.2159C81.8442 57.2159 82.3764 56.8807 82.7741 56.2102C83.1719 55.5398 83.3688 54.5341 83.3651 53.1932C83.3651 52.3106 83.2741 51.5758 83.0923 50.9886C82.9143 50.4015 82.6605 49.9602 82.331 49.6648C82.0052 49.3693 81.6207 49.2216 81.1776 49.2216C80.5147 49.2216 79.9844 49.553 79.5866 50.2159C79.1889 50.8788 78.9882 51.8712 78.9844 53.1932C78.9844 54.0871 79.0734 54.8333 79.2514 55.4318C79.4332 56.0265 79.6889 56.4735 80.0185 56.7727C80.348 57.0682 80.7344 57.2159 81.1776 57.2159ZM92.6932 47.3636V59H90.233V49.6989H90.1648L87.5 51.3693V49.1875L90.3807 47.3636H92.6932ZM100.021 59.2557C99.044 59.2519 98.2031 59.0114 97.4986 58.5341C96.7978 58.0568 96.258 57.3655 95.8793 56.4602C95.5043 55.5549 95.3187 54.4659 95.3224 53.1932C95.3224 51.9242 95.5099 50.8428 95.8849 49.9489C96.2637 49.0549 96.8035 48.375 97.5043 47.9091C98.2088 47.4394 99.0478 47.2045 100.021 47.2045C100.995 47.2045 101.832 47.4394 102.533 47.9091C103.237 48.3788 103.779 49.0606 104.158 49.9545C104.536 50.8447 104.724 51.9242 104.72 53.1932C104.72 54.4697 104.531 55.5606 104.152 56.4659C103.777 57.3712 103.239 58.0625 102.538 58.5398C101.838 59.017 100.999 59.2557 100.021 59.2557ZM100.021 57.2159C100.688 57.2159 101.22 56.8807 101.618 56.2102C102.016 55.5398 102.213 54.5341 102.209 53.1932C102.209 52.3106 102.118 51.5758 101.936 50.9886C101.758 50.4015 101.504 49.9602 101.175 49.6648C100.849 49.3693 100.464 49.2216 100.021 49.2216C99.3584 49.2216 98.8281 49.553 98.4304 50.2159C98.0327 50.8788 97.8319 51.8712 97.8281 53.1932C97.8281 54.0871 97.9171 54.8333 98.0952 55.4318C98.277 56.0265 98.5327 56.4735 98.8622 56.7727C99.1918 57.0682 99.5781 57.2159 100.021 57.2159ZM111.537 47.3636V59H109.077V49.6989H109.009L106.344 51.3693V49.1875L109.224 47.3636H111.537ZM118.865 59.2557C117.888 59.2519 117.047 59.0114 116.342 58.5341C115.642 58.0568 115.102 57.3655 114.723 56.4602C114.348 55.5549 114.162 54.4659 114.166 53.1932C114.166 51.9242 114.354 50.8428 114.729 49.9489C115.107 49.0549 115.647 48.375 116.348 47.9091C117.053 47.4394 117.892 47.2045 118.865 47.2045C119.839 47.2045 120.676 47.4394 121.376 47.9091C122.081 48.3788 122.623 49.0606 123.001 49.9545C123.38 50.8447 123.568 51.9242 123.564 53.1932C123.564 54.4697 123.375 55.5606 122.996 56.4659C122.621 57.3712 122.083 58.0625 121.382 58.5398C120.681 59.017 119.842 59.2557 118.865 59.2557ZM118.865 57.2159C119.532 57.2159 120.064 56.8807 120.462 56.2102C120.859 55.5398 121.056 54.5341 121.053 53.1932C121.053 52.3106 120.962 51.5758 120.78 50.9886C120.602 50.4015 120.348 49.9602 120.018 49.6648C119.693 49.3693 119.308 49.2216 118.865 49.2216C118.202 49.2216 117.672 49.553 117.274 50.2159C116.876 50.8788 116.676 51.8712 116.672 53.1932C116.672 54.0871 116.761 54.8333 116.939 55.4318C117.121 56.0265 117.376 56.4735 117.706 56.7727C118.036 57.0682 118.422 57.2159 118.865 57.2159ZM80.7557 78.2557C79.7784 78.2519 78.9375 78.0114 78.233 77.5341C77.5322 77.0568 76.9924 76.3655 76.6136 75.4602C76.2386 74.5549 76.053 73.4659 76.0568 72.1932C76.0568 70.9242 76.2443 69.8428 76.6193 68.9489C76.9981 68.0549 77.5379 67.375 78.2386 66.9091C78.9432 66.4394 79.7822 66.2045 80.7557 66.2045C81.7292 66.2045 82.5663 66.4394 83.267 66.9091C83.9716 67.3788 84.5133 68.0606 84.892 68.9545C85.2708 69.8447 85.4583 70.9242 85.4545 72.1932C85.4545 73.4697 85.2652 74.5606 84.8864 75.4659C84.5114 76.3712 83.9735 77.0625 83.2727 77.5398C82.572 78.017 81.733 78.2557 80.7557 78.2557ZM80.7557 76.2159C81.4223 76.2159 81.9545 75.8807 82.3523 75.2102C82.75 74.5398 82.947 73.5341 82.9432 72.1932C82.9432 71.3106 82.8523 70.5758 82.6705 69.9886C82.4924 69.4015 82.2386 68.9602 81.9091 68.6648C81.5833 68.3693 81.1989 68.2216 80.7557 68.2216C80.0928 68.2216 79.5625 68.553 79.1648 69.2159C78.767 69.8788 78.5663 70.8712 78.5625 72.1932C78.5625 73.0871 78.6515 73.8333 78.8295 74.4318C79.0114 75.0265 79.267 75.4735 79.5966 75.7727C79.9261 76.0682 80.3125 76.2159 80.7557 76.2159ZM92.2713 66.3636V78H89.8111V68.6989H89.7429L87.0781 70.3693V68.1875L89.9588 66.3636H92.2713ZM99.5994 78.2557C98.6222 78.2519 97.7813 78.0114 97.0767 77.5341C96.3759 77.0568 95.8362 76.3655 95.4574 75.4602C95.0824 74.5549 94.8968 73.4659 94.9006 72.1932C94.9006 70.9242 95.0881 69.8428 95.4631 68.9489C95.8419 68.0549 96.3816 67.375 97.0824 66.9091C97.7869 66.4394 98.6259 66.2045 99.5994 66.2045C100.573 66.2045 101.41 66.4394 102.111 66.9091C102.815 67.3788 103.357 68.0606 103.736 68.9545C104.115 69.8447 104.302 70.9242 104.298 72.1932C104.298 73.4697 104.109 74.5606 103.73 75.4659C103.355 76.3712 102.817 77.0625 102.116 77.5398C101.416 78.017 100.577 78.2557 99.5994 78.2557ZM99.5994 76.2159C100.266 76.2159 100.798 75.8807 101.196 75.2102C101.594 74.5398 101.791 73.5341 101.787 72.1932C101.787 71.3106 101.696 70.5758 101.514 69.9886C101.336 69.4015 101.082 68.9602 100.753 68.6648C100.427 68.3693 100.043 68.2216 99.5994 68.2216C98.9366 68.2216 98.4063 68.553 98.0085 69.2159C97.6108 69.8788 97.41 70.8712 97.4062 72.1932C97.4062 73.0871 97.4953 73.8333 97.6733 74.4318C97.8551 75.0265 98.1108 75.4735 98.4403 75.7727C98.7699 76.0682 99.1562 76.2159 99.5994 76.2159ZM111.115 66.3636V78H108.655V68.6989H108.587L105.922 70.3693V68.1875L108.803 66.3636H111.115ZM92.3651 85.3636V97H89.9048V87.6989H89.8366L87.1719 89.3693V87.1875L90.0526 85.3636H92.3651ZM99.6932 97.2557C98.7159 97.2519 97.875 97.0114 97.1705 96.5341C96.4697 96.0568 95.9299 95.3655 95.5511 94.4602C95.1761 93.5549 94.9905 92.4659 94.9943 91.1932C94.9943 89.9242 95.1818 88.8428 95.5568 87.9489C95.9356 87.0549 96.4754 86.375 97.1761 85.9091C97.8807 85.4394 98.7197 85.2045 99.6932 85.2045C100.667 85.2045 101.504 85.4394 102.205 85.9091C102.909 86.3788 103.451 87.0606 103.83 87.9545C104.208 88.8447 104.396 89.9242 104.392 91.1932C104.392 92.4697 104.203 93.5606 103.824 94.4659C103.449 95.3712 102.911 96.0625 102.21 96.5398C101.509 97.017 100.67 97.2557 99.6932 97.2557ZM99.6932 95.2159C100.36 95.2159 100.892 94.8807 101.29 94.2102C101.688 93.5398 101.884 92.5341 101.881 91.1932C101.881 90.3106 101.79 89.5758 101.608 88.9886C101.43 88.4015 101.176 87.9602 100.847 87.6648C100.521 87.3693 100.136 87.2216 99.6932 87.2216C99.0303 87.2216 98.5 87.553 98.1023 88.2159C97.7045 88.8788 97.5038 89.8712 97.5 91.1932C97.5 92.0871 97.589 92.8333 97.767 93.4318C97.9489 94.0265 98.2045 94.4735 98.5341 94.7727C98.8636 95.0682 99.25 95.2159 99.6932 95.2159Z" fill="#464DAF"/>
</svg>
