<svg width="193" height="194" viewBox="0 0 193 194" fill="none" xmlns="http://www.w3.org/2000/svg">
<rect width="193" height="194" fill="white"/>
<g clip-path="url(#clip0_0_1)">
<rect width="193" height="194" fill="white"/>
<rect x="66" y="76" width="16" height="16" fill="#A7ABDC"/>
<rect x="66" y="122" width="16" height="16" fill="#5F65BF"/>
<rect x="66" y="145" width="16" height="16" fill="#464DAF"/>
<rect x="66" y="99" width="16" height="16" fill="#7C81CB"/>
<rect x="118" y="122" width="16" height="16" fill="#5F65BF"/>
<rect x="118" y="145" width="16" height="16" fill="#464DAF"/>
<rect x="118" y="99" width="16" height="16" fill="#7C81CB"/>
<rect x="118" y="76" width="16" height="16" fill="#A7ABDC"/>
<rect x="118" y="53" width="16" height="16" fill="#C5C8E8"/>
<rect x="40" y="122" width="16" height="16" fill="#5F65BF"/>
<rect x="40" y="145" width="16" height="16" fill="#464DAF"/>
<rect x="40" y="99" width="16" height="16" fill="#7C81CB"/>
<rect x="40" y="76" width="16" height="16" fill="#A7ABDC"/>
<rect x="40" y="53" width="16" height="16" fill="#C5C8E8"/>
<rect x="144" y="122" width="16" height="16" fill="#5F65BF"/>
<rect x="144" y="145" width="16" height="16" fill="#464DAF"/>
<rect x="144" y="99" width="16" height="16" fill="#7C81CB"/>
<rect x="144" y="76" width="16" height="16" fill="#A7ABDC"/>
<rect x="144" y="53" width="16" height="16" fill="#C5C8E8"/>
<rect x="144" y="30" width="16" height="16" fill="#E2E3F3"/>
<rect x="92" y="122" width="16" height="16" fill="#5F65BF"/>
<rect x="92" y="145" width="16" height="16" fill="#464DAF"/>
<rect x="92" y="99" width="16" height="16" fill="#7C81CB"/>
</g>
<defs>
<clipPath id="clip0_0_1">
<rect width="193" height="194" fill="white"/>
</clipPath>
</defs>
</svg>
